<?xml version="1.0" standalone="no"?>
<!DOCTYPE svg PUBLIC "-//W3C//DTD SVG 1.1//EN" "http://www.w3.org/Graphics/SVG/1.1/DTD/svg11.dtd" >
<svg xmlns="http://www.w3.org/2000/svg" xmlns:xlink="http://www.w3.org/1999/xlink" version="1.1">
<metadata>
Created by FontForge 20201107 at Thu Sep  4 12:42:14 2025
 By 
</metadata>
<defs>
<font id="AlroBold" horiz-adv-x="1247" >
  <font-face 
    font-family="Alro"
    font-weight="700"
    font-stretch="normal"
    units-per-em="2048"
    panose-1="0 0 0 0 0 0 0 0 0 0"
    ascent="1638"
    descent="-410"
    x-height="1142"
    cap-height="1495"
    bbox="-213 -577 2174 2082"
    underline-thickness="0"
    underline-position="0"
    unicode-range="U+000A-20AC"
  />
<missing-glyph horiz-adv-x="1079" 
d="M102 1434h875v-1434h-875v1434zM160 1393l379 -633l381 633h-760zM514 717l-369 614v-1231zM541 674l-379 -631h758zM565 717l371 -621v1239z" />
    <glyph glyph-name=".notdef" horiz-adv-x="1079" 
d="M102 1434h875v-1434h-875v1434zM160 1393l379 -633l381 633h-760zM514 717l-369 614v-1231zM541 674l-379 -631h758zM565 717l371 -621v1239z" />
    <glyph glyph-name=".null" horiz-adv-x="0" 
 />
    <glyph glyph-name=".null" horiz-adv-x="0" 
 />
    <glyph glyph-name="nonmarkingreturn" horiz-adv-x="682" 
 />
    <glyph glyph-name="controlLF" unicode="&#xa;" horiz-adv-x="0" 
 />
    <glyph glyph-name="controlCR" unicode="&#xd;" horiz-adv-x="0" 
 />
    <glyph glyph-name="space" unicode=" " horiz-adv-x="743" 
 />
    <glyph glyph-name="exclam" unicode="!" horiz-adv-x="477" 
d="M379 452h-285v1043h285v-1043zM237 10q-65 0 -111 46t-46 111t46 111t111 46t111 -46t46 -111t-46 -111t-111 -46z" />
    <glyph glyph-name="quotedbl" unicode="&#x22;" horiz-adv-x="763" 
d="M194 1702q58 0 101.5 -37.5t52.5 -89.5t-17 -107l-137 -211h-157v288q0 65 46 111t111 46zM590 1702q58 0 101.5 -37.5t52.5 -89.5t-17 -107l-137 -211h-157v288q0 65 46 111t111 46z" />
    <glyph glyph-name="numbersign" unicode="#" horiz-adv-x="1415" 
d="M1097 838h-28l-37 -176h246l-52 -247h-247l-42 -197l-10 -50h-247l53 247h-197l-42 -197l-10 -50h-247l52 247h-246l52 247h247l37 176h-246l52 247h247l20 95l31 147h247l-52 -242h197l20 95l32 147h246l-51 -242h246l-52 -247h-219zM785 662l38 176h-197l-37 -176h196z
" />
    <glyph glyph-name="dollar" unicode="$" horiz-adv-x="1302" 
d="M1103 827q74 -74 110 -167t33 -183.5t-38.5 -177.5t-96.5 -152.5t-150 -106.5t-190 -42h-14v-234h-208v234h-446v294h656q53 0 94 21t62 55t30.5 75t-0.5 82.5t-31.5 75.5t-62.5 55t-92 21q-37 0 -141 -0.5t-141 -0.5q-166 0 -280 104.5t-132 250.5q-12 92 16.5 178.5
t84.5 148.5t136.5 99t168.5 37h78v234h208v-234h383v-294q-4 0 -338.5 -0.5t-338.5 -0.5q-39 -3 -66.5 -26t-34 -55.5t-0.5 -64.5t33 -55.5t68 -26.5q12 -1 296 -1q203 0 344 -143z" />
    <glyph glyph-name="percent" unicode="%" horiz-adv-x="1538" 
d="M1146 670q144 0 246.5 -102t102.5 -246t-102.5 -246.5t-246.5 -102.5t-246 102.5t-102 246.5t102 246t246 102zM1146 165q65 0 111 45.5t46 110.5q0 66 -46.5 111.5t-110.5 45.5q-65 0 -111 -46t-46 -111t46 -110.5t111 -45.5zM391 825q-144 0 -246 102.5t-102 246.5
t102 246t246 102t246.5 -102t102.5 -246t-102.5 -246.5t-246.5 -102.5zM391 1331q-65 0 -111 -46t-46 -111t46 -111t111 -46t111 46t46 111q0 66 -46.5 111.5t-110.5 45.5zM1463 1495l-19 -22l-1094 -1473h-272l1111 1495h274z" />
    <glyph glyph-name="ampersand" unicode="&#x26;" horiz-adv-x="1419" 
d="M547 297h775v-296h-425l-34 -1h-80h-172q-107 0 -161 11q-48 9 -91 27q-88 36 -158 106q-81 80 -116.5 184t-26 203.5t56.5 186.5q43 79 104 135q-76 103 -76 237q0 168 119 287q118 118 285 118h322q167 0 285 -118t118 -287q0 -132 -76 -237q63 -58 105 -135
q57 -105 57 -228h-296q0 80 -57 137q-57 56 -136 56h-322q-79 0 -136 -56q-58 -58 -58 -138t57 -136t137 -56zM530 1201q-44 -6 -69.5 -40t-25.5 -72.5t26 -71.5t74 -38h345q47 5 73.5 38t26.5 71.5t-25 72.5t-70 40h-355z" />
    <glyph glyph-name="quotesingle" unicode="'" horiz-adv-x="368" 
d="M194 1702q58 0 101.5 -37.5t52.5 -89.5t-17 -107l-137 -211h-157v288q0 65 46 111t111 46z" />
    <glyph glyph-name="parenleft" unicode="(" horiz-adv-x="550" 
d="M569 1645q-218 -429 -222 -905q-4 -464 199 -891h-290q-184 434 -180 892q4 471 200 904h293z" />
    <glyph glyph-name="parenright" unicode=")" horiz-adv-x="548" 
d="M292 1645q184 -434 180 -891q-4 -475 -199 -905h-293q217 427 221 906q4 463 -199 890h290z" />
    <glyph glyph-name="asterisk" unicode="*" horiz-adv-x="772" 
d="M737 1589v-191h-182l95 -155l-164 -100l-101 167l-102 -167l-163 100l95 155h-182v191h182l-95 156l163 99l102 -167l101 167l164 -99l-95 -156h182z" />
    <glyph glyph-name="plus" unicode="+" horiz-adv-x="907" 
d="M571 866h291v-237h-291v-291h-237v291h-291v237h291v291h237v-291z" />
    <glyph glyph-name="comma" unicode="," horiz-adv-x="395" 
d="M198 322q58 0 101.5 -37.5t52.5 -89.5t-17 -107q-2 -3 -69 -106t-68 -105h-157v288q0 65 46 111t111 46z" />
    <glyph glyph-name="hyphen" unicode="-" horiz-adv-x="698" 
d="M659 441h-622v237h622v-237z" />
    <glyph glyph-name="period" unicode="." horiz-adv-x="391" 
d="M194 10q-65 0 -111 46t-46 111t46 111t111 46t111 -46t46 -111t-46 -111t-111 -46z" />
    <glyph glyph-name="slash" unicode="/" horiz-adv-x="935" 
d="M617 1495h280l-577 -1496h-279z" />
    <glyph glyph-name="zero" unicode="0" horiz-adv-x="1366" 
d="M1293 928q-1 -339 -1 -395v-3q-12 -241 -189 -410q-115 -111 -266.5 -151t-302 -2.5t-265.5 145.5q-197 183 -197 448q1 382 1 396v2q12 242 189 411q115 111 266.5 150.5t301.5 2t266 -145.5q197 -183 197 -448zM996 535l3 372q-2 81 -24 142t-86 117q-90 80 -211 77.5
t-210 -85.5q-90 -83 -99 -204q0 -87 -2 -261q0 -74 -1 -133.5t25 -122t85 -114.5q90 -80 211 -77.5t210 85.5q90 83 99 204z" />
    <glyph glyph-name="one" unicode="1" horiz-adv-x="731" 
d="M598 1269q44 -84 44 -168v-1101h-298v1098q-2 36 -24.5 62.5t-51.5 36.5q-15 4 -215 4v294h181q118 0 214 -61t150 -165z" />
    <glyph glyph-name="two" unicode="2" horiz-adv-x="1312" 
d="M1057 1440q86 -52 136.5 -131t60.5 -161.5t-13 -166.5t-74 -149.5t-133.5 -107t-180.5 -41.5h-298q-79 0 -136.5 -56.5t-57.5 -136.5l-1 -193h800v-297h-1094v469q0 111 39.5 207.5t105.5 161t152.5 102t179.5 39.5h321q47 5 73 38t26 71.5t-25 72.5t-69 40h-667v294
q97 0 206 0.5t167.5 1t127.5 0t101.5 -1t73.5 -3.5t59 -6.5t43 -10t40.5 -14.5t36.5 -21z" />
    <glyph glyph-name="three" unicode="3" horiz-adv-x="1339" 
d="M1220 718q40 -74 52.5 -156.5t-2 -158t-52 -146t-93 -124t-130.5 -88.5t-159 -42v-2l-53 -1h-726v297h732q53 0 94.5 21.5t62.5 55.5t30.5 75t-0.5 82t-31.5 75t-62.5 55.5t-93 21.5h-636v296h647q37 4 62.5 26.5t32 53t1 61t-30 53.5t-60.5 28h-652v294h635
q168 0 286 -118q73 -73 101.5 -169t11.5 -188.5t-71 -166.5q61 -56 104 -135z" />
    <glyph glyph-name="four" unicode="4" horiz-adv-x="1329" 
d="M936 812v683h297v-1495h-297v516h-405q-95 1 -183 39.5t-152.5 103.5t-103.5 155.5t-39 190.5v490h297v-490q0 -82 56 -137.5t138 -55.5h392z" />
    <glyph glyph-name="five" unicode="5" horiz-adv-x="1339" 
d="M1139 835q72 -71 108 -160.5t36 -177.5t-31.5 -174t-88 -153.5t-140.5 -112.5t-182 -54v-2l-54 -1h-677v297h683q52 0 93.5 21t63 55t31.5 75t0.5 82.5t-31 75.5t-63 55t-94.5 21h-323q-170 0 -286 118.5t-116 290.5v404h1089v-297h-800q0 -6 -1 -28t-1 -38.5t2 -41.5
t9.5 -42.5t19.5 -35t33.5 -26.5t50.5 -9l326 1q202 -2 343 -143z" />
    <glyph glyph-name="six" unicode="6" horiz-adv-x="1341" 
d="M1080 892q122 -90 175 -238.5t23 -302t-135 -258.5q-128 -126 -297 -141v-1q-68 -2 -339 -2v3q-169 15 -297 141q0 1 -1 1t-2 1q-133 135 -133 332v459q0 160 75 299.5t208 222.5q140 87 314 87h427v-293h-421q-108 -1 -189 -65t-110 -156h431q150 -3 271 -89zM797 247
q53 0 94.5 24t63 63t31.5 85.5t0 93.5t-31.5 86t-63 63t-94.5 24h-434v-272q8 -69 62 -118t131 -49h241z" />
    <glyph glyph-name="seven" unicode="7" horiz-adv-x="1243" 
d="M40 1201q-1 35 -1 294h1147v-247l-860 -1297l-251 163l723 1087h-758z" />
    <glyph glyph-name="eight" unicode="8" horiz-adv-x="1517" 
d="M1297 853q61 -56 104 -135q47 -86 56.5 -186t-26 -204t-116.5 -184q-144 -143 -351 -144h-270q-13 0 -51.5 -0.5t-55.5 0t-53 1.5t-56.5 5t-53.5 10.5t-57.5 17.5t-54 26t-57 36t-54.5 48q-81 80 -116.5 184t-26 203.5t56.5 186.5q43 79 104 135q-76 103 -76 237
q0 169 118.5 287t285.5 118h423q167 0 285 -118t118 -287q0 -132 -76 -237zM411 627q-58 -58 -58 -138t57 -136t137 -56h423q79 0 136 56t57.5 136t-57.5 138q-56 56 -136 56h-423q-79 0 -136 -56zM981 979q47 5 73.5 38t26.5 71.5t-25 72.5t-70 40h-456q-44 -6 -69.5 -40
t-25.5 -72.5t26 -71.5t74 -38h446z" />
    <glyph glyph-name="nine" unicode="9" horiz-adv-x="1333" 
d="M1261 1017v-412q0 -214 -131 -379q-83 -105 -206 -165.5t-266 -60.5h-422v296h422q117 0 204 77q70 62 95 143h-431q-136 3 -245.5 72.5t-175.5 188.5q-48 87 -57 187.5t27 204t117 183.5q128 126 297 141v1q33 1 339 1v-2q181 -17 307 -151.5t126 -324.5zM972 812v219
q-8 69 -62 118t-131 49h-241q-81 0 -138 -56t-57.5 -136.5t57.5 -137.5q56 -56 138 -56h434z" />
    <glyph glyph-name="colon" unicode=":" horiz-adv-x="423" 
d="M210 844q-65 0 -111 46t-46 111t46 111t111 46t111 -46t46 -111t-46 -111t-111 -46zM210 416q-65 0 -111 46t-46 111t46 111t111 46t111 -46t46 -111t-46 -111t-111 -46z" />
    <glyph glyph-name="semicolon" unicode=";" horiz-adv-x="432" 
d="M218 842q-65 0 -111 46t-46 111t46 111t111 46t111 -46t46 -111t-46 -111t-111 -46zM218 728q58 0 102 -37.5t53 -89t-17 -106.5q0 -1 -69 -105.5t-69 -105.5h-157v287q0 65 46 111t111 46z" />
    <glyph glyph-name="less" unicode="&#x3c;" horiz-adv-x="698" 
d="M651 1044l-297 -297l297 -297l-168 -167l-465 464l465 465z" />
    <glyph glyph-name="equal" unicode="=" horiz-adv-x="854" 
d="M801 408h-750v237h750v-237zM801 850h-750v237h750v-237z" />
    <glyph glyph-name="greater" unicode="&#x3e;" horiz-adv-x="698" 
d="M213 1212l464 -465l-464 -464l-168 167l297 297l-297 297z" />
    <glyph glyph-name="question" unicode="?" horiz-adv-x="1230" 
d="M555 10q-65 0 -111 46t-46 111t46 111t111 46t111 -46t46 -111t-46 -111t-111 -46zM1115 1256q58 -99 67.5 -215t-31.5 -223q-30 -78 -79.5 -134.5t-102 -85.5t-102.5 -50t-91.5 -44t-58.5 -52h-299q6 34 11 54q19 62 53.5 110t78 77t82.5 47.5t82 36t62 28.5
q78 48 104.5 132t-11.5 162q-25 53 -75.5 83.5t-111.5 30.5h-178q-68 0 -123 -38t-76 -105v-1l-273 72q39 110 98.5 185t159.5 122t226 47h154q126 0 226 -47q132 -62 208 -192z" />
    <glyph glyph-name="at" unicode="@" horiz-adv-x="1888" 
d="M942 1632q180 0 344 -70t282.5 -188t188.5 -282t70 -344q0 -186 -73.5 -353t-203.5 -290v616q0 4 0.5 13t0.5 14q0 165 -81.5 305t-222 221.5t-305.5 81.5t-305.5 -81.5t-222 -221.5t-81.5 -305q0 -124 48.5 -236.5t130 -194t194 -130t236.5 -48.5q101 0 198 33v589
q-5 78 -62.5 131.5t-135.5 53.5q-82 0 -140 -58t-58 -140q0 -83 58 -141t140 -58q28 0 55 8v-271q-27 -3 -55 -3q-95 0 -181 37t-148 99t-99 148t-37 181q0 126 62 233t169.5 169t233.5 62q124 0 229.5 -60t168.5 -164t66 -227h1v-766q-212 -132 -465 -132q-180 0 -344 70
t-282.5 188.5t-188.5 282.5t-70 344t70 344t188.5 282t282.5 188t344 70z" />
    <glyph glyph-name="A" unicode="A" horiz-adv-x="1378" 
d="M75 -3v581q0 45 -1.5 118.5t-2 114t2 103t9.5 102t21 92.5t36 93t55.5 85t77.5 86q116 108 267 145.5t303 -2.5t268 -151q176 -169 190 -411v-3q1 -198 1 -953h-297v548h-633v-548h-297zM1005 842q0 4 0.5 33.5t0 38t-2.5 36t-6 41t-11.5 39t-18 42.5t-27 39t-37.5 42
q-90 84 -210.5 86t-210.5 -78q-22 -20 -40 -42t-29.5 -39.5t-19.5 -44.5t-12 -39.5t-6.5 -42.5t-3 -37t0 -39.5t0.5 -34.5h633z" />
    <glyph glyph-name="B" unicode="B" horiz-adv-x="1351" 
d="M872 -1q-79 -2 -780 -2v1496h731q167 0 286 -119q73 -73 102 -168t12.5 -187.5t-72.5 -167.5q63 -58 105 -135q48 -87 57.5 -187.5t-26.5 -204.5t-117 -184q-128 -126 -298 -141zM836 977q46 5 72 38t27 71.5t-24 72.5t-71 40v-1h-451v-221h447zM819 294q55 0 97.5 21.5
t64.5 55.5t32.5 75.5t0 82.5t-32 75t-63.5 55.5t-95 21.5h-434v-387h430z" />
    <glyph glyph-name="C" unicode="C" horiz-adv-x="1208" 
d="M1176 -3h-517q-213 0 -378 131q-163 129 -214 329q-10 41 -15 91.5t-5 84.5t1 97t1 87q0 63 2 98t11 95t33.5 116.5t64.5 112.5q119 168 316 230q87 28 183 28h517v-296h-517q-120 0 -207 -76.5t-105 -190.5q-4 -27 -3.5 -190.5t3.5 -182.5q17 -116 105 -192t207 -76h517
v-296z" />
    <glyph glyph-name="D" unicode="D" horiz-adv-x="1363" 
d="M1312 936q3 -7 3 -193t-11 -245q-24 -131 -93 -230q-83 -127 -218 -199t-289 -72h-612v1500h612q154 0 288 -73t219 -197q90 -133 101 -291zM1016 561q3 20 3 187.5t-3 184.5q-18 114 -105 191t-207 77h-315v-908h315q120 0 207.5 76t104.5 191v1z" />
    <glyph glyph-name="E" unicode="E" horiz-adv-x="1263" 
d="M1212 293v-296h-496q-233 0 -399 107q-152 98 -221 265q-8 20 -15 40t-11.5 43.5t-8 40t-5.5 44t-3.5 40.5t-2 44.5t-0.5 41v45v42.5q0 11 -0.5 65.5t0 72.5t4 64.5t11 75t21.5 69.5t34 79q86 162 258 247q149 74 338 74h496v-296h-496q-175 0 -272.5 -87t-99.5 -220h762
v-294h-762q3 -133 99.5 -220t272.5 -87h496z" />
    <glyph glyph-name="F" unicode="F" horiz-adv-x="1161" 
d="M987 894v-294h-622v-603h-294v732q0 8 -0.5 50t-0.5 62t3 66.5t8.5 75t16.5 75.5t26.5 80t40 76t55 76t73.5 68.5t94 63.5q65 36 164 55.5t185 19.5h416v-296h-416q-162 0 -264 -80.5t-107 -226.5h622z" />
    <glyph glyph-name="G" unicode="G" horiz-adv-x="1433" 
d="M756 777h629q0 -26 1.5 -89t0.5 -109.5t-5 -89.5q-10 -98 -58 -192.5t-124.5 -172t-188 -125t-237.5 -47.5h-108q-216 0 -379 131.5t-213 324.5q-5 21 -8.5 37t-5.5 41.5t-3 45t-1.5 66.5t0 83.5t0.5 119.5v153q0 109 47 215t126.5 188.5t194.5 133.5t242 51h108
q208 0 373.5 -128.5t217.5 -325.5l-276 -98l-4 -4q-18 108 -104.5 184t-206.5 76h-108q-132 0 -224 -92.5t-92 -221.5q2 -186 0 -369q0 -144 109 -239q59 -51 160 -70t202 0t160 70q73 63 98 157h-323v296z" />
    <glyph glyph-name="H" unicode="H" horiz-adv-x="1409" 
d="M1314 -1h-296v681h-629v-681h-297l2 1496h295v-522h629v522h296v-1496z" />
    <glyph glyph-name="I" unicode="I" horiz-adv-x="483" 
d="M387 0h-297l2 1495h295v-1495z" />
    <glyph glyph-name="J" unicode="J" horiz-adv-x="1202" 
d="M1126 532q-6 -119 -56.5 -226.5t-131 -185t-191 -123t-231.5 -45.5q-176 0 -301.5 78.5t-230.5 229.5q55 44 233 187q51 -80 85 -114q87 -85 214 -85q125 0 215 83.5t99 205.5v961h297q0 -778 -1 -963v-3z" />
    <glyph glyph-name="K" unicode="K" horiz-adv-x="1345" 
d="M990 492q0 81 -56.5 137.5t-137.5 56.5h-407v-683h-297v1495h297v-516h416q42 3 72 34.5t30 76.5v404h294v-404q0 -132 -77 -238q75 -69 118.5 -162.5t43.5 -200.5v-494h-296v494z" />
    <glyph glyph-name="L" unicode="L" horiz-adv-x="1116" 
d="M454 299h1q17 -4 275 -4h1h1h1h1h1h1h1h1h1h1h1h1h1h1h1h1h1h1h1h1h1h1h1h1h1h1h1h1h1h1h1h1h1h1h1h1h1h1h1h1h1h1h1h1h1h1h1h1h1h1h1h1h1h1h1h1h1h1h1h1h1h1h1h1h1h1h1h1h1h1h1h1h1h1h1h1h1h1h1h1h1h1h1h1h1h1h1h1h1h1h1h1h1h1h1h1h1h1h1h1h1h1h1h1h1h1h1h1h1h1h1h1h1h1
h1h1h1h1h1h1h1h1h1h1h1h1h1h1h1h1h1h1h1h1h1h1h1h1h1h1h1h1h1h1h1h1h1h1h1h1h1h1h1h1h1h1h1h1h1h1h1h1h1h1h1h1h1h1h1h1h1h1h1h1h1h1h1h1h1h1h1h1h1h1h1h1h1h1h1h1h1h1h1h1h1h1h1h1h1h1h1h1h1h1h1h1h1h1h1h1h1h1h1h1h1h1h1h1h1h1h1h1h1h1h1h1h1h1h1h1h1h1h1h1h1h1h1h1h1h1h1
h1h1h1h1h1h1h1h1h1h1h1h1h1h1h1h1h1h1h1h1h1h1h1h1h1h1h1h1h1h1h1h1h1h1h1h1h1h1h1h1h1h1h1h1h1h1h1h1h1h1h1h1h1h1h1h1h1h1h1h1h1h1h1h1h1h1h1h1h1h1h1h1h1h1h1h1h1h1h1h1h1h1h1h1h1h1h1h1h1h1h1h1h1h1h1h1h1h1h1h1h1h1h1h1h1h1h1h1h1h1h1h1h1h1h1h1h1h1h1h1h1h1h1h1h1h1h1
h1h1h1h1h1h1h1h1h1h1h9v-294h-629q-90 0 -169 37.5t-130.5 96t-81 127.5t-27.5 133v1101h297l1 -1098q2 -36 24 -62.5t51 -36.5h1z" />
    <glyph glyph-name="M" unicode="M" horiz-adv-x="1736" 
d="M1056 1498q164 0 305 -81.5t223.5 -222.5t82.5 -306v-890h-296q0 808 1 891q0 120 -84.5 212.5t-206.5 100.5q-31 -1 -64 -1v-1198h-298l2 1198h-74q-117 -11 -200 -102t-83 -211q2 -162 2 -890h-296q0 931 1 942v2q14 151 96.5 278t218 202.5t295.5 75.5h375z" />
    <glyph glyph-name="N" unicode="N" horiz-adv-x="1357" 
d="M368 1h-294q0 771 1 954v2q12 240 187 407q114 110 264 149t298.5 2t263.5 -144q196 -182 196 -444v-926h-293v795q0 10 1 45t0.5 46t-1 41t-3.5 43t-8 38.5t-13 41t-19.5 36.5t-28 39t-36.5 36q-89 79 -209 77t-208 -84q-89 -83 -98 -203v-951z" />
    <glyph glyph-name="O" unicode="O" horiz-adv-x="1443" 
d="M774 1542q152 0 286.5 -71t222.5 -202t100 -293q2 -29 2 -220q0 -16 0.5 -68.5t0 -67.5t-1.5 -58.5t-4 -60.5t-7.5 -53t-12.5 -57t-18.5 -52t-25.5 -58t-34 -56q-81 -124 -214.5 -198.5t-293.5 -74.5h-108q-159 0 -292.5 74.5t-215.5 198.5q-21 31 -37.5 63.5t-27.5 58.5
t-18.5 61.5t-11.5 56t-5.5 60t-2 56.5t0 61t0.5 59v253q0 109 47 215.5t126.5 188.5t194.5 133t242 51h108zM1087 516q4 24 3 234t-4 229q-18 113 -105 190q-45 39 -114.5 59.5t-146.5 20.5q-168 0 -260 -80q-88 -78 -106 -190q-3 -19 -3.5 -229t3.5 -234q18 -117 105 -192
q88 -76 207 -76h108q119 0 207 76t106 192z" />
    <glyph glyph-name="P" unicode="P" horiz-adv-x="1333" 
d="M825 1495q203 0 346 -143.5t143 -347.5q0 -202 -142.5 -345t-342.5 -143h-440v-517h-297l2 1496h731zM825 811q52 0 93.5 21.5t63 55.5t31.5 75.5t-0.5 83t-32 75.5t-64 55.5t-97.5 21.5h-430v-388h436z" />
    <glyph glyph-name="Q" unicode="Q" horiz-adv-x="1478" 
d="M1449 159l-211 -210l-142 143q-150 -94 -326 -94h-108q-120 0 -228.5 44t-188 119t-130.5 176.5t-61 214.5l-1 433q13 154 98 282t220.5 201.5t290.5 73.5h108q155 0 290.5 -73.5t220.5 -201.5t98 -282l1 -421q-1 -3 -4 -29t-8 -56.5t-22.5 -78.5t-44.5 -93zM662 294h108
q119 0 207 75.5t105 192.5q4 25 3.5 211.5t-3.5 205.5q-18 113 -105 190q-59 52 -160 71t-202 0t-160 -71q-87 -77 -105 -190q-3 -19 -3.5 -205.5t3.5 -211.5q17 -116 105 -192t207 -76z" />
    <glyph glyph-name="R" unicode="R" horiz-adv-x="1329" 
d="M907 406q0 46 -32.5 78.5t-78.5 32.5h-407v-517h-297v1496h704q204 0 347 -144q101 -101 131.5 -234.5t-10.5 -260t-140 -215.5q75 -104 75 -236v-406h-292v406zM389 1200v-388h407q82 0 137 56q56 56 56.5 136t-56.5 139q-56 57 -145 57h-399z" />
    <glyph glyph-name="S" unicode="S" horiz-adv-x="1259" 
d="M1081 828q74 -75 110 -168t33.5 -183.5t-38 -177.5t-96.5 -153t-150 -107t-190 -42h-669v294h656q53 0 94 21.5t62 55.5t30.5 75t-0.5 82t-31.5 75t-62.5 55.5t-92 21.5q-37 0 -141 -0.5t-141 -0.5q-166 0 -280.5 105t-132.5 251q-12 93 16.5 179t85 148t136.5 99t169 37
h669v-295h-678q-39 -3 -66.5 -26t-34 -55.5t-0.5 -64.5t33 -55.5t68 -26.5v-1h66.5h141.5h90q200 0 343 -143z" />
    <glyph glyph-name="T" unicode="T" horiz-adv-x="1222" 
d="M760 -1h-296v1202h-470v294h1235v-294h-469v-1202z" />
    <glyph glyph-name="U" unicode="U" horiz-adv-x="1372" 
d="M998 1498h297q0 -777 -1 -962v-3q-12 -242 -189 -411q-115 -111 -266.5 -150.5t-301.5 -2t-266 145.5q-197 183 -197 448v935h296v-802q0 -11 -1 -51t-1 -52t1.5 -45.5t6 -48.5t12 -43t19.5 -46t30 -40.5t41 -43.5q90 -80 211 -78t210 85q90 83 99 205v960z" />
    <glyph glyph-name="V" unicode="V" horiz-adv-x="1357" 
d="M679 410q34 95 193 535t217 597l275 -99l-488 -1352q-23 -62 -77 -100.5t-120 -38.5t-121 38.5t-77 100.5l-489 1352l275 99q358 -982 412 -1132z" />
    <glyph glyph-name="W" unicode="W" horiz-adv-x="1826" 
d="M1447 1495h297v-1047q-3 -113 -44.5 -207t-106.5 -155t-149.5 -96t-172.5 -37.5t-177.5 28t-161.5 93.5l-20 18l-20 -18q-96 -84 -217.5 -111t-241 7.5t-209.5 125.5q-138 138 -144 352v1047h297v-1047q0 -56 21.5 -99t55.5 -64.5t75.5 -31t83 1t75.5 32.5t55.5 63.5
t21.5 92.5v1052h294v-1052q0 -51 21.5 -92.5t55.5 -63.5t75.5 -32.5t83 -1t75.5 31t55.5 64.5t21.5 99v1047z" />
    <glyph glyph-name="X" unicode="X" horiz-adv-x="1363" 
d="M4 131l491 638l-448 595l241 178l393 -523l394 523l241 -178l-448 -595l492 -640l-239 -177l-440 568l-438 -566z" />
    <glyph glyph-name="Y" unicode="Y" horiz-adv-x="1273" 
d="M949 1495h297l-1 -383q0 -113 -38.5 -215.5t-103.5 -177t-147 -126t-172 -73.5v-521h-297l1 521q-178 43 -310 190.5t-152 348.5q-1 12 -1 436h295q0 -303 -1 -383q0 -139 110 -237q90 -80 211 -77.5t210 85.5q90 83 99 204v408z" />
    <glyph glyph-name="Z" unicode="Z" horiz-adv-x="1316" 
d="M1262 1314q31 -83 9 -167t-89 -141l-839 -713h933v-294h-977q-88 0 -159 49t-102 132t-9 167t90 141l838 714h-828v294h872q88 0 159 -49.5t102 -132.5z" />
    <glyph glyph-name="bracketleft" unicode="[" horiz-adv-x="747" 
d="M414 1287q-68 -77 -68 -182v-715q0 -106 68 -183q57 -64 118.5 -81.5t154.5 -15.5v-260h-63q-234 0 -396 174q-144 154 -144 366v715q0 211 144 366q162 174 396 174h63v-260q-92 2 -154 -15.5t-119 -82.5z" />
    <glyph glyph-name="backslash" unicode="\" horiz-adv-x="935" 
d="M318 1495l575 -1496h-278l-578 1496h281z" />
    <glyph glyph-name="bracketright" unicode="]" horiz-adv-x="745" 
d="M516 1471q144 -155 144 -366v-715q0 -212 -144 -366q-163 -175 -396 -175h-63v261q93 -2 154.5 15.5t118.5 81.5q68 77 68 183v715q0 105 -68 182q-57 65 -119 82.5t-154 15.5v260h63q234 0 396 -174z" />
    <glyph glyph-name="asciicircum" unicode="^" horiz-adv-x="1124" 
d="M374 534q-30 -41 -78 -41h-259l380 512h289l380 -512h-259q-48 0 -77 40l-188 249z" />
    <glyph glyph-name="underscore" unicode="_" horiz-adv-x="1427" 
d="M1334 -388h-1242v237h1242v-237z" />
    <glyph glyph-name="grave" unicode="`" horiz-adv-x="438" 
d="M77 1338q-26 55 -17 106.5t52.5 89t101.5 37.5q65 0 111.5 -46t46.5 -111v-287h-158z" />
    <glyph glyph-name="a" unicode="a" 
d="M610 1148q156 0 288.5 -77t209.5 -209.5t77 -288.5v-575h-288v575q0 119 -84 203.5t-203 84.5t-203.5 -84.5t-84.5 -203.5t84.5 -203t203.5 -84q80 0 144 38v-308q-69 -18 -144 -18q-156 0 -288.5 77t-209.5 209.5t-77 288.5t77 288.5t209.5 209.5t288.5 77z" />
    <glyph glyph-name="b" unicode="b" horiz-adv-x="1245" 
d="M1209 573q0 -156 -77 -288.5t-209.5 -209.5t-288.5 -77t-288.5 77t-209.5 209.5t-77 288.5v1006h288v-1006q0 -119 84 -203t203 -84t203.5 84t84.5 203t-84.5 203.5t-203.5 84.5q-75 0 -143 -39v308q69 18 143 18q156 0 288.5 -77t209.5 -209.5t77 -288.5z" />
    <glyph glyph-name="c" unicode="c" horiz-adv-x="1036" 
d="M813 370l203 -203q-80 -80 -184.5 -124.5t-221.5 -44.5q-156 0 -288.5 77t-209.5 209.5t-77 288.5t77 288.5t209.5 209.5t288.5 77q117 0 221.5 -44t184.5 -124l-203 -204q-85 85 -203 85q-119 0 -203.5 -84.5t-84.5 -203.5t84.5 -203t203.5 -84t203 84z" />
    <glyph glyph-name="d" unicode="d" horiz-adv-x="1245" 
d="M1185 573q0 -156 -77 -288.5t-209.5 -209.5t-288.5 -77t-288.5 77t-209.5 209.5t-77 288.5t77 288.5t209.5 209.5t288.5 77q75 0 144 -18v-308q-66 39 -144 39q-119 0 -203.5 -84.5t-84.5 -203.5t84.5 -203t203.5 -84t203 84t84 203v1006h288v-1006z" />
    <glyph glyph-name="e" unicode="e" horiz-adv-x="1122" 
d="M591 287q124 -8 218 82l227 -178q-66 -74 -145 -118l1 -1q-131 -74 -282 -74q-156 0 -288.5 77t-209.5 209.5t-77 288.5t77 288.5t209.5 209.5t288.5 77q147 0 280.5 -74t212.5 -206q-227 -293 -353 -455l-225 180l191 246q-39 22 -106 22q-119 0 -203.5 -84.5
t-84.5 -203.5q0 -114 78 -196.5t191 -89.5z" />
    <glyph glyph-name="f" unicode="f" horiz-adv-x="684" 
d="M373 -2h-287v1006q0 156 77 288.5t209.5 209.5t288.5 77h288v-287h-288q-119 0 -203.5 -84.5t-84.5 -203.5h288v-287h-288v-719z" />
    <glyph glyph-name="g" unicode="g" horiz-adv-x="1249" 
d="M610 1148q156 0 288.5 -77t209.5 -209.5t77 -288.5v-575q0 -156 -77 -288.5t-209.5 -209.5t-288.5 -77q-75 0 -144 18v308q66 -38 144 -38q119 0 203 84t84 203v575q0 119 -84 203.5t-203 84.5t-203.5 -84.5t-84.5 -203.5t84.5 -203t203.5 -84q80 0 144 38v-308
q-69 -18 -144 -18q-156 0 -288.5 77t-209.5 209.5t-77 288.5t77 288.5t209.5 209.5t288.5 77z" />
    <glyph glyph-name="h" unicode="h" horiz-adv-x="1011" 
d="M374 1148q156 0 288.5 -77t209.5 -209.5t77 -288.5v-575h-288v575q0 119 -84 203.5t-203 84.5v-863h-288v1581h288v-431z" />
    <glyph glyph-name="i" unicode="i" horiz-adv-x="462" 
d="M230 1277q-66 0 -112 46.5t-46 112.5t46 112t112 46t112.5 -46t46.5 -112t-46.5 -112.5t-112.5 -46.5zM374 -2h-288v1150h288v-1150z" />
    <glyph glyph-name="j" unicode="j" horiz-adv-x="460" 
d="M85 -2v1150h288v-1150q0 -156 -77 -288.5t-209.5 -209.5t-288.5 -77q-2 0 -5.5 0.5t-5.5 0.5v287h11q119 0 203 84t84 203zM229 1277q-66 0 -112 46.5t-46 112.5t46 112t112 46t112.5 -46t46.5 -112t-46.5 -112.5t-112.5 -46.5z" />
    <glyph glyph-name="k" unicode="k" horiz-adv-x="1134" 
d="M814 778q128 -77 203 -207.5t75 -284.5v-288h-287v288q0 119 -84.5 203t-203.5 84q-77 0 -143 -39v-536h-288v1581h288v-718q119 0 203 84t84 203h288q0 -209 -135 -370z" />
    <glyph glyph-name="l" unicode="l" horiz-adv-x="462" 
d="M86 -2v1581h288v-1581h-288z" />
    <glyph glyph-name="m" unicode="m" horiz-adv-x="1863" 
d="M1781 757q5 -18 7 -32.5t4 -42.5t2.5 -54.5t0.5 -88t-0.5 -123t-1 -180t-0.5 -238.5h-288q0 84 0.5 180t1 150.5t0.5 118t-1 97.5t-3.5 73.5t-7 59.5t-11.5 43t-16 37.5t-22 29.5q-63 70 -156 70q-92 0 -155 -70q-13 -15 -22.5 -29.5t-16.5 -37.5t-11 -43t-6.5 -60
t-3.5 -73t-1.5 -97.5t0 -118.5t1 -150.5t0.5 -179.5h-290q0 83 0.5 179.5t1 150.5t0 118.5t-1.5 97.5t-3.5 73t-6.5 60t-11 43t-16.5 37.5t-22.5 29.5q-63 70 -155 70q-93 0 -156 -70q-13 -15 -22 -29.5t-16 -37.5t-11.5 -43t-7 -59.5t-3.5 -73.5t-1 -97.5t0.5 -118
t1 -150.5t0.5 -180h-288q0 120 -0.5 238.5t-1 180t-0.5 123t0.5 88t2.5 54.5t4 42.5t7 32.5q42 183 181 286.5t310 104.5q101 -1 195 -39t165 -110q71 72 165 110t195 39q171 -1 310 -104.5t181 -286.5z" />
    <glyph glyph-name="n" unicode="n" horiz-adv-x="1013" 
d="M374 1148q156 0 288.5 -77t209.5 -209.5t77 -288.5v-575h-288v575q0 119 -84 203.5t-203 84.5v-863h-288v1150h288z" />
    <glyph glyph-name="o" unicode="o" horiz-adv-x="1222" 
d="M1185 573q0 -156 -77 -288.5t-209.5 -209.5t-288.5 -77t-288.5 77t-209.5 209.5t-77 288.5t77 288.5t209.5 209.5t288.5 77t288.5 -77t209.5 -209.5t77 -288.5zM610 286q119 0 203 84t84 203q0 120 -84.5 204t-202.5 84q-119 0 -203.5 -84.5t-84.5 -203.5t84.5 -203
t203.5 -84z" />
    <glyph glyph-name="p" unicode="p" 
d="M1211 573q0 -156 -77 -288.5t-209.5 -209.5t-288.5 -77q-74 0 -143 18v308q67 -38 143 -38q119 0 203.5 84t84.5 203t-84.5 203.5t-203.5 84.5t-203 -84.5t-84 -203.5v-1006h-288v1006q0 156 77 288.5t209.5 209.5t288.5 77t288.5 -77t209.5 -209.5t77 -288.5z" />
    <glyph glyph-name="q" unicode="q" 
d="M897 -433v1006q0 119 -84 203.5t-203 84.5t-203.5 -84.5t-84.5 -203.5t84.5 -203t203.5 -84q80 0 144 38v-308q-69 -18 -144 -18q-156 0 -288.5 77t-209.5 209.5t-77 288.5t77 288.5t209.5 209.5t288.5 77t288.5 -77t209.5 -209.5t77 -288.5v-1006h-288z" />
    <glyph glyph-name="r" unicode="r" horiz-adv-x="649" 
d="M61 -2v575q0 156 77 288.5t209.5 209.5t288.5 77v-287q-119 0 -203 -84.5t-84 -203.5v-575h-288z" />
    <glyph glyph-name="s" unicode="s" horiz-adv-x="1007" 
d="M963 356q0 -148 -104.5 -252.5t-252.5 -104.5h-3h-525v286h528q29 0 50 21t21 50t-21 50.5t-50 21.5h-201q-147 2 -250.5 106t-103.5 251q0 148 105 252.5t253 104.5v0h482v-286h-482q-29 0 -50.5 -21t-21.5 -50t21.5 -50.5t50.5 -21.5h200q147 -2 250.5 -106t103.5 -251
z" />
    <glyph glyph-name="t" unicode="t" horiz-adv-x="804" 
d="M778 16q-69 -18 -144 -18q-156 0 -288.5 77t-209.5 209.5t-77 288.5v863h288v-432h287v-287h-287v-144q0 -119 84 -203t203 -84q78 0 144 38v-308z" />
    <glyph glyph-name="u" unicode="u" horiz-adv-x="1140" 
d="M1060 389q-42 -183 -180.5 -286.5t-309.5 -104.5q-171 1 -310 104.5t-181 286.5q-5 18 -7 32.5t-4 42.5t-2.5 54.5t-0.5 88t0.5 123t1 180t0.5 238.5h288q0 -84 -0.5 -180t-1 -150.5t-0.5 -118t1 -97.5t3.5 -73.5t7 -59.5t11.5 -43t16 -37.5t22 -29.5q63 -70 156 -70
q92 0 155 70q13 15 22.5 29.5t16.5 37.5t11 43t6.5 60t3.5 73t1.5 97.5t0 118.5t-1 150.5t-0.5 179.5h287q0 -120 0.5 -238.5t1 -180t0.5 -123t-0.5 -88t-2.5 -54.5t-4 -42.5t-7 -32.5z" />
    <glyph glyph-name="v" unicode="v" horiz-adv-x="1011" 
d="M949 573q0 -156 -77 -288.5t-209.5 -209.5t-288.5 -77h-288v1150h288v-862q119 0 203 84t84 203v575h288v-575z" />
    <glyph glyph-name="w" unicode="w" horiz-adv-x="1861" 
d="M1781 389q-42 -183 -181 -286.5t-310 -104.5q-101 1 -195 39t-165 110q-71 -72 -165 -110t-195 -39q-171 1 -310 104.5t-181 286.5q-5 18 -7 32.5t-4 42.5t-2.5 54.5t-0.5 88t0.5 123t1 180t0.5 238.5h288q0 -84 -0.5 -180t-1 -150.5t-0.5 -118t1 -97.5t3.5 -73.5
t7 -59.5t11.5 -43t16 -37.5t22 -29.5q63 -70 156 -70q92 0 155 70q13 15 22.5 29.5t16.5 37.5t11 43t6.5 60t3.5 73t1.5 97.5t0 118.5t-1 150.5t-0.5 179.5h290q0 -83 -0.5 -179.5t-1 -150.5t0 -118.5t1.5 -97.5t3.5 -73t6.5 -60t11 -43t16.5 -37.5t22.5 -29.5
q63 -70 155 -70q93 0 156 70q13 15 22 29.5t16 37.5t11.5 43t7 59.5t3.5 73.5t1 97.5t-0.5 118t-1 150.5t-0.5 180h288q0 -120 0.5 -238.5t1 -180t0.5 -123t-0.5 -88t-2.5 -54.5t-4 -42.5t-7 -32.5z" />
    <glyph glyph-name="x" unicode="x" horiz-adv-x="950" 
d="M902 285v-286q-125 1 -236 52t-190 141q-80 -91 -191.5 -142t-237.5 -51v286q119 0 202 83q90 90 83 218.5t-109 208.5q-77 61 -176 61v286q126 0 237.5 -51t191.5 -142q79 90 190 141t236 52v-286q-119 -2 -200 -83q-90 -90 -83 -218.5t109 -208.5q75 -60 174 -61z" />
    <glyph glyph-name="y" unicode="y" horiz-adv-x="1009" 
d="M922 -2q0 -156 -77 -288.5t-209.5 -209.5t-288.5 -77q-75 0 -144 18v308q67 -38 144 -38q119 0 203 84t84 203q-156 0 -288.5 77t-209.5 209.5t-77 288.5v575h288v-575q0 -119 84 -203t203 -84v862h288v-1150z" />
    <glyph glyph-name="z" unicode="z" horiz-adv-x="1091" 
d="M1047 -2h-862q-59 0 -101.5 42.5t-42.5 101.5q0 57 38 98l518 621h-556v287h862q59 0 101.5 -42.5t42.5 -101.5q0 -57 -41 -100h1l-516 -618h556v-288z" />
    <glyph glyph-name="braceleft" unicode="{" horiz-adv-x="651" 
d="M633 1415q-67 -13 -115 -41t-87 -89q-55 -86 -39 -190q6 -37 15 -104q8 -68 -15.5 -132t-73.5 -112q50 -48 73.5 -111.5t15.5 -131.5q-9 -67 -15 -104q-16 -104 39 -191q39 -61 87 -88.5t115 -40.5v-264q-138 22 -236.5 73t-177.5 168q-118 174 -86 383q12 80 17 144
l-91 130v67l91 130q-5 62 -17 143q-32 210 86 384q80 118 178 168.5t236 72.5v-264z" />
    <glyph glyph-name="verticalbar" unicode="|" horiz-adv-x="475" 
d="M380 -286h-288v2067h288v-2067z" />
    <glyph glyph-name="braceright" unicode="}" horiz-adv-x="651" 
d="M590 781v-67l-91 -130q5 -64 17 -144q32 -209 -86 -383q-79 -117 -177.5 -168t-236.5 -73v264q67 13 115 40.5t87 88.5q56 88 40 191q-6 37 -15 104q-8 68 15.5 131.5t73.5 111.5q-50 48 -74 112t-16 132q5 38 16 104q16 102 -40 190q-39 61 -87 89t-115 41v264
q138 -22 236 -72.5t178 -168.5q118 -174 86 -384q-12 -81 -17 -143z" />
    <glyph glyph-name="asciitilde" unicode="~" horiz-adv-x="1075" 
d="M235 415l-4 -16h-172v20q0 155 84 256q43 52 104 77t118.5 23t106.5 -25q52 -24 121 -69q29 -18 43 -26t33 -15t36 -7q53 0 82 23.5t49 95.5l4 15h175v-20q0 -115 -47 -202.5t-130 -126.5q-57 -26 -120 -26q-62 0 -113 24q-58 27 -124 70q-77 49 -111 49q-59 0 -91 -32
t-44 -88z" />
    <glyph glyph-name="nonbreakingspace" unicode="&#xa0;" horiz-adv-x="743" 
 />
    <glyph glyph-name="exclamdown" unicode="&#xa1;" horiz-adv-x="448" 
d="M223 750q-65 0 -111 46t-46 111t46 111t111 46t111 -46t46 -111t-46 -111t-111 -46zM365 -421h-285v1043h285v-1043z" />
    <glyph glyph-name="cent" unicode="&#xa2;" horiz-adv-x="1064" 
d="M620 460q119 0 203 84l204 -203q-136 -136 -327 -163v-178h-210v188q-193 45 -319 201t-126 359t126 359t319 201v185h210v-176q191 -27 327 -163l-204 -203q-84 84 -203 84t-203 -84t-84 -203t84 -203.5t203 -84.5z" />
    <glyph glyph-name="sterling" unicode="&#xa3;" horiz-adv-x="1198" 
d="M674 295h494v-295h-1094v295h180q64 13 111.5 63.5t54 116t-44.5 134.5q-3 4 -17.5 22t-23.5 29h-260v210h94q-80 133 -64.5 271t110.5 236q78 81 183 111q78 25 172 28.5t172.5 -9.5t146 -30t105.5 -32l38 -15q-1 -1 -101 -236q-76 29 -152 40t-130.5 5.5t-98 -15.5
t-65.5 -20l-22 -10q-45 -23 -60 -68.5t17 -97.5l-1 -1q2 -3 21 -26.5t52 -64t54 -66.5h385v-210h-247q41 -107 28 -225q-8 -72 -37 -140z" />
    <glyph glyph-name="currency" unicode="&#xa4;" horiz-adv-x="1245" 
d="M1072 760q0 -107 -46 -199l151 -152l-168 -167l-141 141q-113 -73 -246 -73q-132 0 -245 73l-142 -141l-167 167l151 152q-47 94 -47 199q0 97 39 184l-143 143l167 168l128 -127q115 82 259 82q145 0 260 -82l127 127l168 -168l-144 -143q39 -87 39 -184zM622 525
q98 0 166.5 68.5t68.5 166.5t-68.5 166.5t-166.5 68.5t-166.5 -68.5t-68.5 -166.5t68.5 -166.5t166.5 -68.5z" />
    <glyph glyph-name="yen" unicode="&#xa5;" horiz-adv-x="1341" 
d="M1280 1113q0 -106 -34 -202t-91.5 -169t-131 -126t-156.5 -81h273v-210h-321v-325h-297v325h-322v210h273q-163 55 -278.5 196t-133.5 328q-2 24 -2 436h296q0 -302 -1 -382q0 -139 110 -237q90 -80 211 -78t210 85q90 84 99 205v407h297z" />
    <glyph glyph-name="brokenbar" unicode="&#xa6;" horiz-adv-x="460" 
d="M374 684h-288v747h288v-747zM374 -358h-288v747h288v-747z" />
    <glyph glyph-name="section" unicode="&#xa7;" horiz-adv-x="1052" 
d="M876 485q48 -65 57 -141q18 -138 -73.5 -239.5t-225.5 -101.5h-493v217h499v1q36 2 56.5 28t21 55.5t-20 55.5t-57.5 28v1h-49h-103.5h-65.5q-148 0 -253 105q-75 75 -96.5 173t7.5 188t97 155q-49 67 -58 141q-18 138 73.5 239t225.5 101h493v-216q-3 0 -250 -0.5
t-249 -0.5q-36 -2 -56.5 -28t-21 -56t20 -56t57.5 -28h219q147 0 253 -106q75 -75 96.5 -173t-7.5 -187.5t-97 -154.5zM631 606q39 0 69 15.5t45.5 40.5t22.5 55.5t-0.5 60.5t-23 55t-45.5 40.5t-68 15.5h-80h-129q-54 0 -90.5 -29.5t-44.5 -71t1 -83t45.5 -71t88.5 -29.5
h79v1h130z" />
    <glyph glyph-name="dieresis" unicode="&#xa8;" horiz-adv-x="927" 
d="M216 1116q-65 0 -111 46t-46 111t46 111t111 46t111 -46t46 -111t-46 -111t-111 -46zM711 1116q-65 0 -111 46t-46 111t46 111t111 46t111 -46t46 -111t-46 -111t-111 -46z" />
    <glyph glyph-name="copyright" unicode="&#xa9;" horiz-adv-x="1417" 
d="M720 954q-86 0 -146 -60t-60 -146t60 -146t146 -60q75 0 132 48l108 -108q-101 -92 -240 -92q-149 0 -254 105t-105 253t105.5 253.5t253.5 105.5q138 0 240 -93l-108 -108q-57 48 -132 48zM709 1403q177 0 328 -88t239 -239t88 -329t-88 -328.5t-238.5 -238.5
t-328.5 -88t-329 88t-239 239t-88 328q0 133 52 254.5t140 209.5t209.5 140t254.5 52zM709 253q134 0 248 66t180 180t66 248t-66 248t-180 180.5t-248 66.5t-248 -66.5t-180.5 -180.5t-66.5 -248t66.5 -248t180.5 -180t248 -66z" />
    <glyph glyph-name="ordfeminine" unicode="&#xaa;" horiz-adv-x="804" 
d="M398 1528q144 0 246 -102t102 -246v-349h-191v349q0 65 -46 111t-111 46t-111 -46t-46 -111t46 -111t111 -46q40 0 95 31v-210q-47 -13 -95 -13q-144 0 -246.5 102.5t-102.5 246.5t102.5 246t246.5 102z" />
    <glyph glyph-name="guillemotleft" unicode="&#xab;" horiz-adv-x="1003" 
d="M551 1167l-275 -420l275 -419h-241l-275 419l275 420h241zM969 1167l-275 -420l275 -419h-241l-275 419l275 420h241z" />
    <glyph glyph-name="logicalnot" unicode="&#xac;" horiz-adv-x="1286" 
d="M1088 858q61 -32 95 -86.5t34 -121.5v-257h-198q0 261 -1 267q-8 23 -29 24h-932v200h933q48 0 98 -26z" />
    <glyph glyph-name="softhyphen" unicode="&#xad;" horiz-adv-x="0" 
 />
    <glyph glyph-name="registered" unicode="&#xae;" horiz-adv-x="860" 
d="M428 1420q157 0 268.5 -111t111.5 -268t-111.5 -268.5t-268.5 -111.5t-268 111.5t-111 268.5t111 268t268 111zM428 775q110 0 188.5 78t78.5 188t-78.5 188t-188.5 78t-188 -78t-78 -188t78 -188t188 -78zM555 1190q39 -39 37 -92q-2 -49 -35 -84q14 -22 14 -53v-106
h-89v106q0 15 -16 15h-84v-121h-91v372h175q52 0 89 -37zM491 1076q10 10 10 24.5t-10 25.5q-10 10 -26 10h-83v-69h84q16 0 25 9z" />
    <glyph glyph-name="overscore" unicode="&#xaf;" horiz-adv-x="1357" 
d="M1300 1141h-1243v237h1243v-237z" />
    <glyph glyph-name="degree" unicode="&#xb0;" horiz-adv-x="673" 
d="M335 1675q122 0 208.5 -86t86.5 -208t-86.5 -208t-208.5 -86t-208 86t-86 208t86 208t208 86zM335 1227q64 0 109 45t45 109t-45 109t-109 45t-108.5 -45t-44.5 -109t44.5 -109t108.5 -45z" />
    <glyph glyph-name="plusminus" unicode="&#xb1;" horiz-adv-x="950" 
d="M786 0h-622v237h622v-237zM594 1043h291v-237h-291v-291h-238v291h-290v237h290v291h238v-291z" />
    <glyph glyph-name="twosuperior" unicode="&#xb2;" horiz-adv-x="772" 
d="M331 1032q-33 0 -56 -23t-23 -56q-1 -50 -1 -79h414v-195h-608v263q0 128 81 205.5t187 79.5h164q32 3 32 35q0 34 -30 38v2q-28 -2 -342 -2h-21v194h21h163q162 1 205.5 -3.5t83.5 -28.5q69 -42 98 -113t7 -148t-82 -123t-139 -46h-154z" />
    <glyph glyph-name="threesuperior" unicode="&#xb3;" horiz-adv-x="784" 
d="M650 1144q50 -52 68.5 -117t4 -125t-49 -111t-93.5 -81.5t-127 -30.5h-398v195h399q50 0 70 39.5t-1 79t-69 39.5h-349v195h355q29 3 30.5 35t-28.5 38h-357v194h349q66 0 119.5 -34t81 -85t28 -114t-32.5 -117z" />
    <glyph glyph-name="acute" unicode="&#xb4;" horiz-adv-x="438" 
d="M223 1571q58 0 101.5 -37.5t52.5 -89t-17 -106.5l-137 -211h-157v287q0 65 46 111t111 46z" />
    <glyph glyph-name="mu" unicode="&#xb5;" horiz-adv-x="1429" 
d="M1094 580q0 -119 84.5 -203.5t203.5 -84.5v-287q-119 0 -224.5 45.5t-185.5 126.5q-71 -82 -172 -126.5t-210 -45.5q-112 0 -214 47v-337h-288v772q-2 37 -2 103t1 233t1 332h288v-575q4 -89 16.5 -135t41.5 -79q63 -70 156 -70t156 70q36 41 48 104.5t13 212.5v97
q0 41 -1 165.5t-1 209.5h289v-537v-34v-4z" />
    <glyph glyph-name="paragraph" unicode="&#xb6;" horiz-adv-x="1032" 
d="M151 1229q48 67 117.5 112t142.5 63t150 24.5t144 -1t120.5 -16t84.5 -17.5l31 -9v-1485h-144v1342h-247v-1342h-144v655q-149 26 -248 142t-99 270q0 146 92 262z" />
    <glyph glyph-name="periodcentered" unicode="&#xb7;" horiz-adv-x="389" 
d="M194 630q-65 0 -111 46t-46 111t46 111t111 46t111 -46t46 -111t-46 -111t-111 -46z" />
    <glyph glyph-name="cedilla" unicode="&#xb8;" horiz-adv-x="159" 
d="M297 -132q30 -28 43 -66t9.5 -73.5t-20.5 -63.5q-49 -84 -187 -104t-263 40l26 81q8 22 25 28q19 8 38 -3q37 -20 79 -23t69 13q28 16 28 51q0 11 -3.5 21t-12 17.5t-16 13.5t-23 11t-25 8t-29 6.5t-28 5t-30 4.5t-27.5 4q34 108 50 161h160q-1 -4 -4 -14.5t-6.5 -22.5
t-7.5 -26q107 -24 155 -69z" />
    <glyph glyph-name="onesuperior" unicode="&#xb9;" horiz-adv-x="456" 
d="M364 1364q25 -48 25 -98v-591h-200v590q-1 11 -8 19t-15 11q-6 1 -127 1v198h116q67 0 122 -34.5t87 -95.5z" />
    <glyph glyph-name="ordmasculine" unicode="&#xba;" horiz-adv-x="796" 
d="M398 1528q144 0 246 -102t102 -246t-102 -246.5t-246 -102.5t-246.5 102.5t-102.5 246.5t102.5 246t246.5 102zM398 1023q65 0 110.5 46t45.5 111q0 66 -46 111.5t-110 45.5q-65 0 -111 -46t-46 -111t46 -111t111 -46z" />
    <glyph glyph-name="guillemotright" unicode="&#xbb;" horiz-adv-x="1003" 
d="M692 1167l275 -420l-275 -419h-241l275 419l-275 420h241zM274 1167l275 -420l-275 -419h-241l275 419l-275 420h241z" />
    <glyph glyph-name="onequarter" unicode="&#xbc;" horiz-adv-x="1857" 
d="M394 1266v-589h-206l-1 588q-1 18 -18 24q-6 1 -103 1h-27v205h119q67 0 123.5 -34.5t87.5 -95.5q25 -49 25 -99zM915 1496h281l-578 -1496h-279zM1574 818h206v-818h-206v264h-180q-112 1 -191.5 82.5t-79.5 194.5v277h206v-277q0 -31 20 -51.5t51 -20.5h174v349z" />
    <glyph glyph-name="onehalf" unicode="&#xbd;" horiz-adv-x="1785" 
d="M394 1266v-589h-206l-1 588q-1 18 -18 24q-6 1 -103 1h-27v205h119q67 0 123.5 -34.5t87.5 -95.5q25 -49 25 -99zM915 1496h281l-578 -1496h-279zM1338 349q-29 0 -50.5 -21.5t-21.5 -50.5v-71h408v-206h-613v267q0 87 41 154t101 99t128 34h163q25 3 25 29t-24 30v1
q-21 -1 -167 -1h-198v205h28h161q164 1 206.5 -3.5t82.5 -28.5q70 -43 99 -115t7 -151q-22 -78 -83 -124.5t-141 -46.5h-152z" />
    <glyph glyph-name="threequarters" unicode="&#xbe;" horiz-adv-x="2013" 
d="M712 824q-30 -56 -80.5 -93.5t-111.5 -48.5v-4l-54 -1h-398v206h400q36 0 53.5 21t17.5 49q0 30 -18.5 51.5t-52.5 21.5h-352v206h27h330q24 3 24 29q0 25 -21 29h-360v205h352q97 0 165 -68q56 -56 66.5 -136t-28.5 -147q24 -27 42 -60q33 -61 32.5 -129.5t-33.5 -130.5
zM1731 818h206v-818h-206v264h-180q-112 1 -191.5 82.5t-79.5 194.5v277h206v-277q0 -31 20 -51.5t51 -20.5h174v349zM1127 1496h281l-578 -1496h-279z" />
    <glyph glyph-name="questiondown" unicode="&#xbf;" horiz-adv-x="944" 
d="M660 750q-65 0 -111 46t-46 111t46 111t111 46t111 -46t46 -111t-46 -111t-111 -46zM899 5l273 -72q-28 -78 -50 -115q-75 -128 -208 -191q-102 -48 -226 -48h-154q-124 0 -226 48q-133 63 -208 191q-58 99 -67.5 215t31.5 223q30 78 80 134.5t102.5 85.5t102.5 50
t91.5 44t58.5 52h298q-14 -78 -47 -136t-78 -91.5t-86 -54t-89.5 -39.5t-68.5 -32q-78 -48 -104.5 -132t11.5 -162q25 -53 75.5 -83.5t111.5 -30.5h178q68 0 123 38.5t76 105.5z" />
    <glyph glyph-name="Agrave" unicode="&#xc0;" horiz-adv-x="1376" 
d="M700 1637q-37 0 -58 29l-303 396h266q44 0 65 -42l199 -383h-169zM1302 0h-297v547h-633v-547h-297v581q0 45 -1.5 118.5t-2 114t2 103t9.5 102t21 92.5t36 93t55.5 85t77.5 86q116 108 267 145.5t303 -2.5t268 -151q176 -169 190 -411v-3q1 -198 1 -953zM372 845h633
q0 4 0.5 33.5t0 38t-2.5 36t-6 41t-11.5 39t-18 42.5t-27 39t-37.5 42q-90 84 -210.5 85.5t-210.5 -78.5q-22 -20 -40 -42t-29.5 -39.5t-19.5 -44t-12 -39t-6.5 -42.5t-3 -37.5t0 -39.5t0.5 -34z" />
    <glyph glyph-name="Aacute" unicode="&#xc1;" horiz-adv-x="1376" 
d="M777 1666q-21 -29 -57 -29h-170l199 383q21 42 65 42h266zM1302 0h-297v547h-633v-547h-297v581q0 45 -1.5 118.5t-2 114t2 103t9.5 102t21 92.5t36 93t55.5 85t77.5 86q116 108 267 145.5t303 -2.5t268 -151q176 -169 190 -411v-3q1 -198 1 -953zM372 845h633
q0 4 0.5 33.5t0 38t-2.5 36t-6 41t-11.5 39t-18 42.5t-27 39t-37.5 42q-90 84 -210.5 85.5t-210.5 -78.5q-22 -20 -40 -42t-29.5 -39.5t-19.5 -44t-12 -39t-6.5 -42.5t-3 -37.5t0 -39.5t0.5 -34z" />
    <glyph glyph-name="Acircumflex" unicode="&#xc2;" horiz-adv-x="1374" 
d="M546 1674q-22 -30 -58 -30h-194l285 383h216l285 -383h-194q-36 0 -58 30l-141 186zM1302 0h-297v547h-633v-547h-297v581q0 45 -1.5 118.5t-2 114t2 103t9.5 102t21 92.5t36 93t55.5 85t77.5 86q116 108 267 145.5t303 -2.5t268 -151q176 -169 190 -411v-3
q1 -198 1 -953zM372 845h633q0 4 0.5 33.5t0 38t-2.5 36t-6 41t-11.5 39t-18 42.5t-27 39t-37.5 42q-90 84 -210.5 85.5t-210.5 -78.5q-22 -20 -40 -42t-29.5 -39.5t-19.5 -44t-12 -39t-6.5 -42.5t-3 -37.5t0 -39.5t0.5 -34z" />
    <glyph glyph-name="Atilde" unicode="&#xc3;" horiz-adv-x="1376" 
d="M484 1693l-3 -12h-129v15q0 118 63 192q33 39 78 58t88 17.5t80 -18.5q32 -15 91 -52q57 -37 84 -37q40 0 61.5 18t36.5 72l3 11h131v-15q0 -86 -35.5 -151.5t-97.5 -94.5q-43 -20 -89 -20t-85 18q-31 14 -93 53q-57 36 -83 36q-44 0 -68 -24t-33 -66zM1302 0h-297v547
h-633v-547h-297v581q0 45 -1.5 118.5t-2 114t2 103t9.5 102t21 92.5t36 93t55.5 85t77.5 86q116 108 267 145.5t303 -2.5t268 -151q176 -169 190 -411v-3q1 -198 1 -953zM372 845h633q0 4 0.5 33.5t0 38t-2.5 36t-6 41t-11.5 39t-18 42.5t-27 39t-37.5 42
q-90 84 -210.5 85.5t-210.5 -78.5q-22 -20 -40 -42t-29.5 -39.5t-19.5 -44t-12 -39t-6.5 -42.5t-3 -37.5t0 -39.5t0.5 -34z" />
    <glyph glyph-name="Adieresis" unicode="&#xc4;" horiz-adv-x="1376" 
d="M893 1637q-64 0 -108 44t-44 108t44 108q46 46 108 46t109 -46q46 -44 46 -108t-46 -108t-109 -44zM478 1637q-64 0 -108 44q-45 45 -45 108t45 108q46 46 108 46t109 -46q46 -44 46 -108t-46 -108t-109 -44zM1302 0h-297v547h-633v-547h-297v581q0 45 -1.5 118.5t-2 114
t2 103t9.5 102t21 92.5t36 93t55.5 85t77.5 86q116 108 267 145.5t303 -2.5t268 -151q176 -169 190 -411v-3q1 -198 1 -953zM372 845h633q0 4 0.5 33.5t0 38t-2.5 36t-6 41t-11.5 39t-18 42.5t-27 39t-37.5 42q-90 84 -210.5 85.5t-210.5 -78.5q-22 -20 -40 -42t-29.5 -39.5
t-19.5 -44t-12 -39t-6.5 -42.5t-3 -37.5t0 -39.5t0.5 -34z" />
    <glyph glyph-name="Aring" unicode="&#xc5;" horiz-adv-x="1376" 
d="M1302 0h-297v547h-633v-547h-297v581q0 45 -1.5 118.5t-2 114t2 103t9.5 102t21 92.5t36 93t55.5 85t77.5 86q116 108 267 145.5t303 -2.5t268 -151q176 -169 190 -411v-3q1 -198 1 -953zM372 845h633q0 4 0.5 33.5t0 38t-2.5 36t-6 41t-11.5 39t-18 42.5t-27 39
t-37.5 42q-90 84 -210.5 85.5t-210.5 -78.5q-22 -20 -40 -42t-29.5 -39.5t-19.5 -44t-12 -39t-6.5 -42.5t-3 -37.5t0 -39.5t0.5 -34zM684 1616q-96 0 -164 68.5t-68 164.5t68 164.5t164 68.5t164.5 -68.5t68.5 -164.5t-68.5 -164.5t-164.5 -68.5zM684 1948q-41 0 -69.5 -29
t-28.5 -70t28.5 -70t69.5 -29t70 29t29 70t-29 70t-70 29z" />
    <glyph glyph-name="AE" unicode="&#xc6;" horiz-adv-x="2224" 
d="M1415 1128q-106 -92 -109 -231h762v-293h-762q3 -133 99 -220.5t272 -87.5h497v-295h-497q-150 0 -272.5 44.5t-202.5 120.5t-128 173t-59 208h-643v-547h-297v581q0 45 -1.5 118.5t-2 114t2 103t9.5 102t21 92.5t36 93t55.5 85t77.5 86q116 108 267 145.5t303 -2.5
t268 -151q25 -24 58 -66q186 199 508 199h497v-295h-497q-68 0 -145.5 -21.5t-116.5 -55.5zM1005 845q0 4 0.5 33.5t0 38t-2.5 36t-6 41t-11.5 39t-18 42.5t-27 39t-37.5 42q-90 84 -210.5 85.5t-210.5 -78.5q-22 -20 -40 -42t-29.5 -39.5t-19.5 -44t-12 -39t-6.5 -42.5
t-3 -37.5t0 -39.5t0.5 -34h633z" />
    <glyph glyph-name="Ccedilla" unicode="&#xc7;" horiz-adv-x="1210" 
d="M660 1205q-120 0 -207 -77t-105 -191q-4 -27 -3.5 -190t3.5 -182q17 -116 105 -192.5t207 -76.5h517v-295h-405q-1 -2 -19 -68q107 -24 155 -69q30 -28 43 -65.5t9.5 -73t-20.5 -63.5q-49 -84 -187 -104t-263 40l26 81q8 22 25 28q18 8 38 -4q37 -20 79 -22.5t69 13.5
q28 16 28 50q0 23 -14 39t-46 26t-51.5 14t-62.5 10q-14 2 -20 3q46 144 52 167q-6 -21 -120.5 22t-148.5 63q-122 74 -197 191q-62 98 -84 217q-17 87 -18.5 200t4.5 201q6 161 88 301q82 139 222 220.5t301 81.5h517v-295h-517z" />
    <glyph glyph-name="Egrave" unicode="&#xc8;" horiz-adv-x="1259" 
d="M733 1637q-37 0 -58 29l-303 396h266q44 0 65 -42l199 -383h-169zM451 1128q-106 -92 -109 -231h761v-293h-761q3 -133 99 -220.5t272 -87.5h496v-295h-496q-158 0 -299.5 60t-234.5 178q-83 106 -107.5 226t-24.5 294q0 88 4 147.5t18 132.5t46 135.5t82 118.5
q94 104 229.5 155.5t286.5 51.5h496v-295h-496q-68 0 -145.5 -21.5t-116.5 -55.5z" />
    <glyph glyph-name="Eacute" unicode="&#xc9;" horiz-adv-x="1263" 
d="M814 1666q-21 -29 -57 -29h-169l199 383q21 42 64 42h266zM455 1128q-106 -92 -109 -231h762v-293h-762q3 -133 99 -220.5t272 -87.5h497v-295h-497q-158 0 -300 61t-235 179q-52 66 -83.5 148.5t-41.5 163t-12 170t6 170.5q14 215 112 352q91 127 238 191t315 64h498
v-295h-497q-68 0 -145.5 -21.5t-116.5 -55.5z" />
    <glyph glyph-name="Ecircumflex" unicode="&#xca;" horiz-adv-x="1259" 
d="M451 1128q-106 -92 -109 -231h761v-293h-761q3 -133 99 -220.5t272 -87.5h496v-295h-496q-158 0 -299.5 60t-234.5 178q-83 106 -107.5 226t-24.5 294q0 88 4 148t18.5 133t46 135.5t81.5 117.5q94 104 229.5 155.5t286.5 51.5h496v-295h-496q-68 0 -145.5 -21.5
t-116.5 -55.5zM579 1674q-22 -30 -58 -30h-194l285 383h216l285 -383h-194q-36 0 -58 30l-141 186z" />
    <glyph glyph-name="Edieresis" unicode="&#xcb;" horiz-adv-x="1263" 
d="M953 1637q-64 0 -108 44t-44 108t44 108q46 46 108 46t109 -46q46 -44 46 -108t-46 -108t-109 -44zM538 1637q-64 0 -108 44q-45 45 -45 108t45 108q46 46 107.5 46t108.5 -46q47 -45 47 -108t-47 -108q-46 -44 -108 -44zM455 1128q-107 -93 -110 -231h762v-293h-762
q3 -133 99 -220.5t272 -87.5h497v-295h-497q-157 0 -298.5 60.5t-234.5 177.5q-52 66 -84 147t-42 161t-12 168.5t5 169.5q12 224 116 365q92 125 237.5 187.5t312.5 62.5h497v-295h-497q-68 0 -145 -21.5t-116 -55.5z" />
    <glyph glyph-name="Igrave" unicode="&#xcc;" horiz-adv-x="481" 
d="M90 1l2 1496h296v-1496h-298zM252 1637q-37 0 -58 29l-303 396h267q43 0 64 -42l199 -383h-169z" />
    <glyph glyph-name="Iacute" unicode="&#xcd;" horiz-adv-x="483" 
d="M329 1666q-21 -29 -58 -29h-169l199 383q21 42 65 42h266zM90 1l2 1496h295v-1496h-297z" />
    <glyph glyph-name="Icircumflex" unicode="&#xce;" horiz-adv-x="479" 
d="M91 1l1 1496h296v-1496h-297zM347 2027l286 -383h-195q-36 0 -58 30l-141 186l-140 -186q-22 -30 -59 -30h-194l285 383h216z" />
    <glyph glyph-name="Idieresis" unicode="&#xcf;" horiz-adv-x="481" 
d="M139 1897q47 -45 47 -108t-47 -108q-46 -44 -109.5 -44t-107.5 44q-45 45 -45 108t45 108q46 46 108 46t109 -46zM554 1897q46 -45 46 -108t-46 -108q-46 -44 -109.5 -44t-107.5 44q-45 45 -45 108t45 108q46 46 108 46t109 -46zM90 1l2 1496h296v-1496h-298z" />
    <glyph glyph-name="Eth" unicode="&#xd0;" horiz-adv-x="1421" 
d="M1369 939q3 -39 3.5 -193t-10.5 -245q-24 -131 -93 -230q-83 -127 -218 -199t-289 -72h-612v631h-115v238h115v631h612q154 0 288 -73t219 -197q89 -131 100 -291zM1074 564q3 20 3 187.5t-3 184.5q-18 114 -105 191t-207 77h-315v-335h210v-238h-210v-335h315
q120 0 207.5 76t104.5 191v1z" />
    <glyph glyph-name="Ntilde" unicode="&#xd1;" horiz-adv-x="1359" 
d="M486 1759q-24 -24 -36 -78h-129q0 131 63 207q47 56 98.5 72.5t98 1.5t87 -38t78.5 -45.5t59 -22.5q46 0 65.5 21.5t35.5 79.5h131q0 -199 -133 -261q-48 -21 -92.5 -20t-80.5 18.5t-70.5 38t-63 36.5t-57.5 15.5t-54 -25.5zM1088 1366q196 -182 196 -443v-926h-293v794
q0 73 1 132.5t-25 121.5t-84 113q-89 79 -209 76.5t-208 -84.5q-89 -83 -98 -202v-951h-294q0 770 1 953v3q12 240 187 407q114 110 264 149t298.5 1.5t263.5 -144.5z" />
    <glyph glyph-name="Ograve" unicode="&#xd2;" horiz-adv-x="1443" 
d="M734 1637q-36 0 -57 29l-303 396h266q43 0 64 -42l199 -383h-169zM1385 972q3 -33 3 -69.5t-1 -83.5t-1 -69q0 -11 0.5 -69.5t0 -74.5t-2.5 -65t-7 -73t-12.5 -63t-20.5 -71t-30 -63q-20 -34 -31 -51q-81 -123 -214 -197q-136 -75 -294 -75h-108q-158 0 -294 75
q-133 74 -214 197q-65 94 -92 231q-6 32 -9 71.5t-3 67t1 74.5t1 69v151q0 146 30 236q33 100 100 184q66 83 157.5 140.5t194.5 79.5q65 14 128 14h108q107 0 209 -37.5t184 -106.5t136.5 -162t72.5 -198q4 -22 8 -62zM1088 512q4 25 3 234t-4 228q-18 114 -105 191
q-45 39 -114.5 59.5t-146.5 20.5q-168 0 -260 -80q-88 -78 -106 -191q-3 -19 -3.5 -228t3.5 -234q18 -117 105 -192q88 -76 207 -76h108q119 0 207 76t106 192z" />
    <glyph glyph-name="Oacute" unicode="&#xd3;" horiz-adv-x="1441" 
d="M812 1666q-21 -29 -58 -29h-169l199 383q21 42 64 42h267zM1385 972q3 -34 3 -72.5t-1 -87t-1 -72.5q0 -14 0.5 -66.5t0 -71t-2 -63t-6 -69t-11.5 -61t-19 -67.5t-28 -61q-15 -29 -36 -61q-80 -122 -215 -197q-136 -75 -293 -75h-109q-157 0 -293 75q-133 74 -214 197
q-69 100 -94 240q-6 34 -8.5 75t-2.5 70.5t1 78t1 71.5q0 21 -1 68t-1 74.5t2.5 67t8.5 71.5q18 104 74 199q111 188 317 265q102 38 210 38h109q221 0 392 -144q170 -142 209 -358q4 -20 8 -64zM1088 512q4 25 3.5 234t-3.5 228q-18 121 -112.5 196t-253.5 75
q-158 0 -253 -75t-114 -196q-3 -19 -3.5 -228t3.5 -234q17 -117 105 -192.5t207 -75.5h109q119 0 207 75.5t105 192.5z" />
    <glyph glyph-name="Ocircumflex" unicode="&#xd4;" horiz-adv-x="1441" 
d="M580 1674q-22 -30 -58 -30h-194l285 383h216l285 -383h-194q-36 0 -58 30l-141 186zM1385 972q3 -34 3 -73t-1.5 -86.5t-1.5 -72.5q0 -16 0.5 -68t0 -72t-2 -64t-6 -70t-12 -62.5t-20 -68t-29.5 -62.5q-8 -14 -33 -53q-81 -123 -214 -197q-136 -75 -294 -75h-108
q-158 0 -294 75q-133 74 -214 197q-65 94 -91 226q-6 32 -9 71t-3 63.5t0.5 74t0.5 66.5v246q4 105 49.5 205.5t120.5 177.5t172.5 125t203.5 59q42 4 64 4h108q221 0 393 -144q82 -68 136.5 -162t72.5 -199q4 -21 8 -61zM1088 512q4 25 3 234t-4 228q-18 121 -112.5 196
t-253.5 75q-158 0 -252.5 -74.5t-113.5 -196.5q-3 -19 -3.5 -228t3.5 -234q17 -117 105 -192.5t207 -75.5h108q119 0 207.5 76t105.5 192z" />
    <glyph glyph-name="Otilde" unicode="&#xd5;" horiz-adv-x="1445" 
d="M494 1693l-2 -12h-129v15q0 118 63 192q33 39 78 58t88 17.5t80 -18.5q41 -19 91 -52q57 -37 83 -37q40 0 62 18t37 72l3 11h130v-15q0 -86 -35 -151.5t-97 -94.5q-43 -20 -90 -20q-45 0 -84 18q-35 16 -94 53q-57 36 -82 36q-44 0 -68 -24q-25 -25 -34 -66zM1384 972
q6 -78 2 -294q0 -11 -0.5 -45.5t-1 -49t-2 -44.5t-3.5 -49t-6 -44t-10 -47q-18 -72 -46 -123q-9 -17 -35 -56q-82 -124 -214 -197q-136 -75 -293 -75h-109q-157 0 -293 75q-133 74 -214 197q-56 80 -82 175q-8 29 -13 59.5t-6.5 67t-2 58.5t0 67t0.5 61v143q0 166 24 249
q29 100 95 189q132 177 344 230q76 19 147 19h109q221 0 392 -144q170 -142 209 -359q4 -21 8 -63zM1087 512q4 25 3.5 234t-3.5 228q-18 113 -106 191q-45 39 -114.5 59.5t-146.5 20.5q-168 0 -260 -80q-88 -78 -106 -191q-3 -19 -3.5 -228t3.5 -234q18 -116 106 -192
t206 -76h109q118 0 206 76t106 192z" />
    <glyph glyph-name="Odieresis" unicode="&#xd6;" horiz-adv-x="1441" 
d="M927 1637q-64 0 -108 44q-45 45 -45 108t45 108q46 46 108 46t109 -46q46 -44 46 -108t-46 -108t-109 -44zM512 1637q-64 0 -108 44q-45 45 -45 108t45 108q46 46 108 46t109 -46q46 -44 46 -108t-46 -108t-109 -44zM1384 972q3 -33 3 -71t-1 -86t-1 -71q0 -11 0.5 -68
t0 -73.5t-2.5 -64.5t-6.5 -72t-12.5 -62.5t-20.5 -70t-29.5 -62.5q-12 -22 -31 -51q-82 -124 -214 -197q-136 -75 -294 -75h-108q-158 0 -294 75q-133 74 -214 197q-56 82 -82 177q-10 38 -15 86.5t-6 76.5t0 92.5t1 80.5v151q0 148 29 235q33 100 101 185q66 83 157 140.5
t194 79.5q65 14 129 14h108q107 0 209 -37.5t184 -106.5q170 -142 209 -359q2 -11 7 -63zM1087 512q4 25 3.5 234t-3.5 228q-18 114 -105 191q-45 39 -114.5 59.5t-146.5 20.5t-146.5 -20.5t-114.5 -59.5q-87 -77 -105 -191q-3 -19 -3.5 -228t3.5 -234q18 -117 105 -192
q88 -76 207 -76h108q119 0 207 76q87 75 105 192z" />
    <glyph glyph-name="multiply" unicode="&#xd7;" horiz-adv-x="1021" 
d="M974 1044l-297 -297l297 -297l-167 -167l-297 297l-297 -297l-168 167l297 297l-297 297l168 168l297 -297l297 297z" />
    <glyph glyph-name="Oslash" unicode="&#xd8;" horiz-adv-x="1456" 
d="M1388 969q3 -26 1.5 -129t-1.5 -129q2 -56 1 -131t-11 -131q-24 -130 -92 -229q-80 -122 -215 -197q-136 -75 -293 -75h-109q-157 0 -293 75q-34 19 -42 25l-49 -68q-26 -34 -67 -34h-122l137 186q-42 43 -71 88q-3 5 -9.5 14.5t-11.5 17.5t-9 16q-17 31 -30 62.5
t-21 70.5t-13 62.5t-7 72.5t-2.5 65t0 74.5t0.5 68.5q0 23 -1 71t-1 77t2.5 69.5t8.5 73.5q39 217 209 359q171 144 392 144h109q218 0 387 -139l77 104q27 35 67 35h122l-173 -234q119 -151 130 -335zM357 512q12 -76 55 -136l577 784l-5 5q-92 80 -260 80
q-77 0 -146.5 -20.5t-114.5 -59.5q-88 -78 -106 -191q-3 -19 -3.5 -228t3.5 -234zM1090 512q4 25 3.5 234t-3.5 228q-6 36 -20 73l-560 -761q70 -42 159 -42h109q118 0 206 76t106 192z" />
    <glyph glyph-name="Ugrave" unicode="&#xd9;" horiz-adv-x="1372" 
d="M697 1637q-36 0 -57 29l-303 396h266q44 0 65 -42l198 -383h-169zM998 1494h297q0 -778 -1 -963v-2q-12 -242 -189 -411q-115 -111 -266.5 -150.5t-301.5 -2t-266 145.5q-197 183 -197 448v935h296v-802q0 -11 -1 -51t-1 -52t1.5 -45.5t6 -48.5t12 -43t19.5 -46t30 -40.5
t41 -43.5q90 -80 211 -78t210 85q90 83 99 205v960z" />
    <glyph glyph-name="Uacute" unicode="&#xda;" horiz-adv-x="1372" 
d="M774 1666q-21 -29 -57 -29h-169l199 383q21 42 64 42h266zM998 1494h297q0 -778 -1 -963v-2q-12 -242 -189 -411q-115 -111 -266.5 -150.5t-301.5 -2t-266 145.5q-197 183 -197 448v935h296v-802q0 -11 -1 -51t-1 -52t1.5 -45.5t6 -48.5t12 -43t19.5 -46t30 -40.5
t41 -43.5q90 -80 211 -78t210 85q90 83 99 205v960z" />
    <glyph glyph-name="Ucircumflex" unicode="&#xdb;" horiz-adv-x="1372" 
d="M544 1674q-22 -30 -59 -30h-194l286 383h216l285 -383h-194q-37 0 -59 30l-140 186zM998 1494h297q0 -778 -1 -963v-2q-12 -242 -189 -411q-115 -111 -266.5 -150.5t-301.5 -2t-266 145.5q-197 183 -197 448v935h296v-802q0 -11 -1 -51t-1 -52t1.5 -45.5t6 -48.5t12 -43
t19.5 -46t30 -40.5t41 -43.5q90 -80 211 -78t210 85q90 83 99 205v960z" />
    <glyph glyph-name="Udieresis" unicode="&#xdc;" horiz-adv-x="1372" 
d="M891 1637q-64 0 -108 44q-45 45 -45 108t45 108q46 46 108 46t109 -46q46 -44 46 -108t-46 -108t-109 -44zM475 1637q-64 0 -108 44t-44 108t44 108q46 46 108 46t109 -46q47 -45 47 -108t-47 -108q-46 -44 -109 -44zM998 1494h297q0 -778 -1 -963v-2q-12 -242 -189 -411
q-115 -111 -266.5 -150.5t-301.5 -2t-266 145.5q-197 183 -197 448v935h295v-802q0 -74 -1 -133.5t25 -122t85 -114.5q90 -80 211 -78t210 85q90 83 99 205v960z" />
    <glyph glyph-name="Yacute" unicode="&#xdd;" horiz-adv-x="1273" 
d="M725 1666q-21 -29 -57 -29h-169l198 383q21 42 65 42h266zM949 1083v408h297l-1 -383q0 -113 -38.5 -215.5t-103.5 -177t-147 -126t-172 -73.5v-521h-297l1 520q-179 43 -311 190.5t-151 348.5q-1 12 -1 437h295q0 -303 -1 -383q0 -139 110 -237q90 -80 211 -77.5
t210 85.5q90 84 99 204z" />
    <glyph glyph-name="Thorn" unicode="&#xde;" horiz-adv-x="1333" 
d="M825 1250q203 0 346 -143.5t143 -347.5q0 -202 -142.5 -345.5t-342.5 -143.5h-440v-270h-297v194v1300h297v-244h436zM825 566q52 0 93.5 21.5t63 55.5t31.5 75.5t-0.5 83t-32 75.5t-64 55.5t-97.5 21.5h-430v-388h436z" />
    <glyph glyph-name="germandbls" unicode="&#xdf;" horiz-adv-x="1320" 
d="M1202 610q49 -54 72 -121.5t18.5 -135.5t-33.5 -135.5t-78.5 -122.5t-122.5 -95.5t-159 -55.5q-115 -19 -223 -0.5t-195 70.5l129 217q104 -62 246 -38q71 12 128 63.5t55 113.5q-1 40 -45.5 83t-106.5 79t-130.5 85.5t-117.5 104t-67 134t21 175.5q32 82 111 143t166 72
q-106 100 -225 94q-114 -6 -192.5 -93t-78.5 -204v-1040h-288v1037q0 158 76.5 293t209 215t289.5 80q130 0 245.5 -55.5t196.5 -152.5q61 -73 93 -157l-154 -261q-57 14 -105 5.5t-79 -34.5q-34 -32 -28 -70.5t41 -67.5q28 -25 105 -62q139 -68 226 -163z" />
    <glyph glyph-name="agrave" unicode="&#xe0;" horiz-adv-x="1249" 
d="M610 1150q156 0 288.5 -77t209.5 -209.5t77 -288.5v-575h-288v575q0 119 -84 203t-203 84t-203.5 -84t-84.5 -203t84.5 -203.5t203.5 -84.5q76 0 144 39v-308q-69 -18 -144 -18q-156 0 -288.5 77t-209.5 209.5t-77 288.5t77 288.5t209.5 209.5t288.5 77zM622 1289
q-32 0 -53 23l-302 334h261q40 0 61 -34l199 -323h-166z" />
    <glyph glyph-name="aacute" unicode="&#xe1;" 
d="M696 1312q-21 -23 -54 -23h-165l198 323q21 34 62 34h261zM610 1150q156 0 288.5 -77t209.5 -209.5t77 -288.5v-575h-288v575q0 119 -84 203t-203 84t-203.5 -84t-84.5 -203t84.5 -203.5t203.5 -84.5q76 0 144 39v-308q-69 -18 -144 -18q-156 0 -288.5 77t-209.5 209.5
t-77 288.5t77 288.5t209.5 209.5t288.5 77z" />
    <glyph glyph-name="acircumflex" unicode="&#xe2;" horiz-adv-x="1249" 
d="M489 1321q-22 -25 -55 -25h-189l282 332h212l282 -332h-189q-33 0 -55 25l-144 166zM610 1150q156 0 288.5 -77t209.5 -209.5t77 -288.5v-575h-288v575q0 119 -84 203t-203 84t-203.5 -84t-84.5 -203t84.5 -203.5t203.5 -84.5q76 0 144 39v-308q-69 -18 -144 -18
q-156 0 -288.5 77t-209.5 209.5t-77 288.5t77 288.5t209.5 209.5t288.5 77z" />
    <glyph glyph-name="atilde" unicode="&#xe3;" horiz-adv-x="1249" 
d="M610 1150q156 0 288.5 -77t209.5 -209.5t77 -288.5v-575h-288v575q0 119 -84 203t-203 84t-203.5 -84t-84.5 -203t84.5 -203.5t203.5 -84.5q76 0 144 39v-308q-69 -18 -144 -18q-156 0 -288.5 77t-209.5 209.5t-77 288.5t77 288.5t209.5 209.5t288.5 77zM508 1435
q-47 0 -71.5 -25t-35.5 -77h-122q0 127 62 201q32 38 76.5 57t87 17.5t78.5 -18.5t73.5 -41t59.5 -36t43 -12q47 0 67.5 22.5t36.5 78.5h124v-11q0 -85 -34.5 -149.5t-95.5 -93.5q-40 -19 -85.5 -19.5t-85.5 17.5q-35 16 -72.5 40t-61.5 36.5t-44 12.5z" />
    <glyph glyph-name="adieresis" unicode="&#xe4;" horiz-adv-x="1249" 
d="M936 1301q-44 -42 -104 -42t-102 42t-42 103t42 103q44 43 102.5 43t103.5 -43q44 -43 44 -103t-44 -103zM534 1301q-44 -42 -104 -42t-102 42t-42 103t42 103q44 43 102.5 43t103.5 -43q44 -43 44 -103t-44 -103zM610 1150q156 0 288.5 -77t209.5 -209.5t77 -288.5v-575
h-288v575q0 119 -84 203t-203 84t-203.5 -84t-84.5 -203t84.5 -203.5t203.5 -84.5q76 0 144 39v-308q-69 -18 -144 -18q-156 0 -288.5 77t-209.5 209.5t-77 288.5t77 288.5t209.5 209.5t288.5 77z" />
    <glyph glyph-name="aring" unicode="&#xe5;" 
d="M633 1248q-95 0 -162.5 67t-67.5 162t67.5 162.5t162.5 67.5t162 -67.5t67 -162.5t-67 -162t-162 -67zM633 1580q-42 0 -72.5 -30.5t-30.5 -72.5t30.5 -72t72.5 -30t72 30t30 72t-30 72.5t-72 30.5zM610 1150q156 0 288.5 -77t209.5 -209.5t77 -288.5v-575h-288v575
q0 119 -84 203t-203 84t-203.5 -84t-84.5 -203t84.5 -203.5t203.5 -84.5q76 0 144 39v-308q-69 -18 -144 -18q-156 0 -288.5 77t-209.5 209.5t-77 288.5t77 288.5t209.5 209.5t288.5 77z" />
    <glyph glyph-name="ae" unicode="&#xe6;" horiz-adv-x="2070" 
d="M2033 657q22 -150 -33 -293h-338l-238 1l4 287h312q-7 54 -52.5 104.5t-108.5 80t-143 23t-148 -59.5q-90 -70 -107 -183t46 -205q71 -103 199 -122l-3 -288q-102 8 -182 42v-1q-121 51 -208 150q-40 -44 -75 -71q-123 -96 -275 -116t-294 37.5t-238 181.5
q-66 85 -96.5 189t-21.5 211q2 29 14 95t23 66l338 -1h238l-4 -287h-312q3 -16 16 -44t32 -53q73 -94 191 -109t213 58q90 70 107 182.5t-46 204.5q-71 103 -198 122l2 289q102 -8 182 -42v1q121 -51 208 -150q37 40 75 70q84 65 183 95.5t194 25t187 -41.5t164.5 -97.5
t123.5 -151t68 -193.5z" />
    <glyph glyph-name="ccedilla" unicode="&#xe7;" horiz-adv-x="1038" 
d="M1016 168q-78 -78 -180.5 -122.5t-217.5 -45.5l-21 -71q99 -23 142 -63q41 -37 47 -94t-18 -92q-30 -52 -101 -78t-153.5 -21.5t-149.5 36.5l-9 4l23 75q8 20 24 26q17 6 36 -3q34 -18 71.5 -20.5t61.5 11.5q28 15 26 49t-38 48q-13 5 -48 12.5t-63 12.5l-29 6
q48 153 55 178q-191 46 -315 202t-124 357q0 156 77 288.5t209.5 209.5t288.5 77q117 0 221.5 -44t184.5 -124l-203 -204q-85 85 -203 85q-119 0 -203.5 -84.5t-84.5 -203.5t84.5 -203t203.5 -84t203 84z" />
    <glyph glyph-name="egrave" unicode="&#xe8;" horiz-adv-x="1122" 
d="M582 1289q-33 0 -54 23l-302 334h262q40 0 61 -34l198 -323h-165zM591 289q124 -8 218 82l227 -178q-66 -74 -145 -118l1 -1q-131 -74 -282 -74q-198 0 -353.5 121.5t-203.5 309.5q-18 69 -18 144q0 156 77 288.5t209.5 209.5t288.5 77q146 0 275 -71h1l6 -3
q133 -75 211 -206l-207 -266l-146 -189l-225 180l191 246q-37 21 -106 21q-119 0 -203.5 -84t-84.5 -203q0 -114 77.5 -196t191.5 -90z" />
    <glyph glyph-name="eacute" unicode="&#xe9;" horiz-adv-x="1122" 
d="M656 1312q-21 -23 -54 -23h-165l198 323q21 34 61 34h262zM591 289q125 -8 219 82l226 -178q-68 -76 -145 -119h1q-131 -74 -282 -74q-198 0 -353.5 121.5t-203.5 309.5q-25 91 -17.5 180t36.5 169t83.5 147.5t122.5 117t154 77.5t178 28q147 0 276 -71l6 -3
q133 -75 211 -206l-207 -266l-146 -189l-225 180l192 246q-37 21 -107 21q-119 0 -203 -84t-84 -203q0 -114 77.5 -196t190.5 -90z" />
    <glyph glyph-name="ecircumflex" unicode="&#xea;" horiz-adv-x="1122" 
d="M448 1321q-22 -25 -55 -25h-189l282 332h212l282 -332h-189q-33 0 -55 25l-144 166zM591 289q124 -8 218 82l227 -178q-66 -74 -145 -118l1 -1q-131 -74 -282 -74q-198 0 -353.5 121.5t-203.5 309.5q-18 69 -18 144q0 156 77 288.5t209.5 209.5t288.5 77q146 0 275 -71h1
l6 -3q133 -75 211 -206l-207 -266l-146 -189l-225 180l191 246q-37 21 -106 21q-119 0 -203.5 -84t-84.5 -203q0 -114 77.5 -196t191.5 -90z" />
    <glyph glyph-name="edieresis" unicode="&#xeb;" horiz-adv-x="1122" 
d="M895 1301q-43 -42 -103.5 -42t-102.5 42t-42 103t42 103q43 43 102 43t104 -43q44 -43 44 -103t-44 -103zM493 1301q-43 -42 -103.5 -42t-102.5 42t-42 103t42 103q43 43 102 43t104 -43q44 -43 44 -103t-44 -103zM591 289q124 -8 218 82l227 -178q-66 -74 -145 -118
l1 -1q-131 -74 -282 -74q-198 0 -353.5 121.5t-203.5 309.5q-18 69 -18 144q0 156 77 288.5t209.5 209.5t288.5 77q146 0 275 -71h1l6 -3q133 -75 211 -206l-207 -266l-146 -189l-225 180l191 246q-37 21 -106 21q-119 0 -203.5 -84t-84.5 -203q0 -114 77.5 -196t191.5 -90z
" />
    <glyph glyph-name="igrave" unicode="&#xec;" horiz-adv-x="462" 
d="M243 1289q-33 0 -54 23l-302 334h262q40 0 61 -34l199 -323h-166zM374 0h-287v1150h287v-1150z" />
    <glyph glyph-name="iacute" unicode="&#xed;" horiz-adv-x="458" 
d="M316 1312q-21 -23 -54 -23h-165l198 323q21 34 62 34h261zM374 0h-288v1150h288v-1150z" />
    <glyph glyph-name="icircumflex" unicode="&#xee;" horiz-adv-x="464" 
d="M374 0h-287v1150h287v-1150zM336 1628l283 -332h-189q-33 0 -55 25l-145 166l-144 -166q-22 -25 -55 -25h-189l283 332h211z" />
    <glyph glyph-name="idieresis" unicode="&#xef;" horiz-adv-x="460" 
d="M374 0h-287v1150h287v-1150zM131 1507q44 -43 44 -103t-44 -103q-43 -42 -103.5 -42t-102.5 42t-42 103t42 103q43 43 102 43t104 -43zM533 1507q44 -43 44 -103t-44 -103q-43 -42 -103 -42t-102 42t-42 103t42 103q44 43 102 43t103 -43z" />
    <glyph glyph-name="eth" unicode="&#xf0;" 
d="M1185 991v0v-432q0 -156 -77 -288.5t-209.5 -209.5t-288.5 -77t-288.5 77t-209.5 209.5t-77 288.5t77 288.5t209.5 209.5t288.5 77q75 0 144 -18v-308q-66 39 -144 39q-119 0 -203.5 -84.5t-84.5 -203.5t84.5 -203t203.5 -84t203 84t84 203v432q0 128 -96 214l-73 72
l-248 -94l-64 169l169 65l-84 84l203 204l176 -176l300 114l65 -170l-221 -84q76 -79 118.5 -181.5t42.5 -216.5z" />
    <glyph glyph-name="ntilde" unicode="&#xf1;" horiz-adv-x="1013" 
d="M370 1435q-47 0 -71.5 -25.5t-35.5 -76.5h-123q0 127 62 201q32 38 76.5 57t87 17.5t78.5 -18.5t73.5 -41t59.5 -36t43 -12q47 0 67.5 22.5t36.5 78.5h125v-11q0 -85 -35 -149.5t-96 -93.5q-40 -19 -85.5 -19.5t-85.5 17.5q-35 16 -72.5 40t-61 36.5t-43.5 12.5z
M374 1150q156 0 288.5 -77t209.5 -209.5t77 -288.5v-575h-288v575q0 119 -84 203t-203 84v-862h-288v1150h288z" />
    <glyph glyph-name="ograve" unicode="&#xf2;" horiz-adv-x="1220" 
d="M621 1289q-32 0 -53 23l-302 334h261q40 0 61 -34l199 -323h-166zM610 1150q156 0 288.5 -77t209.5 -209.5t77 -288.5t-77 -288.5t-209.5 -209.5t-288.5 -77t-288.5 77t-209.5 209.5t-77 288.5t77 288.5t209.5 209.5t288.5 77zM610 288q119 0 203 84t84 203t-84.5 203
t-202.5 84q-119 0 -203.5 -84t-84.5 -203t84.5 -203t203.5 -84z" />
    <glyph glyph-name="oacute" unicode="&#xf3;" horiz-adv-x="1222" 
d="M650 1312q-21 -23 -54 -23h-165l198 323q21 34 62 34h261zM610 1150q156 0 288.5 -77t209.5 -209.5t77 -288.5t-77 -288.5t-209.5 -209.5t-288.5 -77t-288.5 77t-209.5 209.5t-77 288.5t77 288.5t209.5 209.5t288.5 77zM610 288q119 0 203 84t84 203q0 120 -85 203.5
t-202 83.5q-119 0 -203.5 -84t-84.5 -203t84.5 -203t203.5 -84z" />
    <glyph glyph-name="ocircumflex" unicode="&#xf4;" horiz-adv-x="1220" 
d="M466 1321q-22 -25 -55 -25h-189l282 332h212l282 -332h-189q-33 0 -55 25l-144 166zM610 1150q156 0 288.5 -77t209.5 -209.5t77 -288.5t-77 -288.5t-209.5 -209.5t-288.5 -77t-288.5 77t-209.5 209.5t-77 288.5t77 288.5t209.5 209.5t288.5 77zM610 288q119 0 203 84
t84 203q0 120 -85 203.5t-202 83.5q-119 0 -203.5 -84t-84.5 -203t84.5 -203t203.5 -84z" />
    <glyph glyph-name="otilde" unicode="&#xf5;" horiz-adv-x="1220" 
d="M610 1150q156 0 288.5 -77t209.5 -209.5t77 -288.5t-77 -288.5t-209.5 -209.5t-288.5 -77t-288.5 77t-209.5 209.5t-77 288.5t77 288.5t209.5 209.5t288.5 77zM610 288q119 0 203 84t84 203q0 120 -85 203.5t-202 83.5q-119 0 -203.5 -84t-84.5 -203t84.5 -203t203.5 -84
zM485 1435q-47 0 -72 -25.5t-35 -76.5h-122q0 127 62 201q32 38 76.5 57t87 17.5t78.5 -18.5t73.5 -41t59.5 -36t43 -12q47 0 67.5 22.5t36.5 78.5h124v-11q0 -85 -34.5 -149.5t-95.5 -93.5q-40 -19 -85.5 -19.5t-85.5 17.5q-35 16 -73 40t-61.5 36.5t-43.5 12.5z" />
    <glyph glyph-name="odieresis" unicode="&#xf6;" horiz-adv-x="1220" 
d="M913 1301q-43 -42 -103.5 -42t-102.5 42t-42 103t42 103q43 43 102 43t104 -43q44 -43 44 -103t-44 -103zM511 1301q-43 -42 -103.5 -42t-102.5 42t-42 103t42 103q43 43 102 43t104 -43q44 -43 44 -103t-44 -103zM610 1150q156 0 288.5 -77t209.5 -209.5t77 -288.5
t-77 -288.5t-209.5 -209.5t-288.5 -77t-288.5 77t-209.5 209.5t-77 288.5t77 288.5t209.5 209.5t288.5 77zM610 288q119 0 203 84t84 203t-84.5 203t-202.5 84q-119 0 -203.5 -84t-84.5 -203t84.5 -203t203.5 -84z" />
    <glyph glyph-name="divide" unicode="&#xf7;" horiz-adv-x="1060" 
d="M1008 424h-955v237h955v-237zM530 710q-65 0 -111 46t-46 111t46 111t111 46t111 -46t46 -111t-46 -111t-111 -46zM530 61q-65 0 -111 46t-46 111t46 111t111 46t111 -46t46 -111t-46 -111t-111 -46z" />
    <glyph glyph-name="oslash" unicode="&#xf8;" horiz-adv-x="1228" 
d="M997 1004q90 -81 141 -192t51 -236q0 -156 -77 -288.5t-209.5 -209.5t-288.5 -77q-154 0 -292 80l-43 -60q-23 -29 -58 -29h-105l114 156q-90 80 -140.5 191.5t-50.5 236.5q0 156 77 288.5t209.5 209.5t288.5 77q155 0 291 -79l44 59q23 29 58 29h105zM326 576
q0 -111 76 -193l332 454q-59 27 -120 27q-118 0 -203 -85t-85 -203zM817 373q84 84 84 203q0 112 -75 193l-332 -454q57 -26 120 -26q119 0 203 84z" />
    <glyph glyph-name="ugrave" unicode="&#xf9;" horiz-adv-x="1140" 
d="M582 1289q-33 0 -54 23l-302 334h262q40 0 61 -34l199 -323h-166zM1072 1150q0 -120 0.5 -238.5t1 -180t0.5 -123t-0.5 -88t-2.5 -54.5t-4 -42.5t-7 -32.5q-42 -183 -180.5 -286.5t-309.5 -104.5q-171 1 -310 104.5t-181 286.5q-5 18 -7 32.5t-4 42.5t-2.5 54.5t-0.5 88
t0.5 123t1 180t0.5 238.5h288q0 -84 -0.5 -180t-1 -150.5t-0.5 -118t1 -97.5t3.5 -73.5t7 -59.5t11.5 -43t16 -37.5t22 -29.5q62 -70 155.5 -70t155.5 70q13 15 22.5 29.5t16.5 37.5t11 43t6.5 60t3.5 73t1.5 97.5t0 118.5t-1 150.5t-0.5 179.5h287z" />
    <glyph glyph-name="uacute" unicode="&#xfa;" horiz-adv-x="1140" 
d="M656 1312q-21 -23 -54 -23h-165l198 323q21 34 61 34h262zM1072 1150q0 -120 0.5 -238.5t1 -180t0.5 -123t-0.5 -88t-2.5 -54.5t-4 -42.5t-7 -32.5q-42 -183 -180.5 -286.5t-309.5 -104.5q-171 1 -310 104.5t-181 286.5q-5 18 -7 32.5t-4 42.5t-2.5 54.5t-0.5 88t0.5 123
t1 180t0.5 238.5h288q0 -84 -0.5 -180t-1 -150.5t-0.5 -118t1 -97.5t3.5 -73.5t7 -59.5t11.5 -43t16 -37.5t22 -29.5q62 -70 155.5 -70t155.5 70q13 15 22.5 29.5t16.5 37.5t11 43t6.5 60t3.5 73t1.5 97.5t0 118.5t-1 150.5t-0.5 179.5h287z" />
    <glyph glyph-name="ucircumflex" unicode="&#xfb;" horiz-adv-x="1140" 
d="M426 1321q-22 -25 -55 -25h-190l283 332h212l282 -332h-189q-33 0 -55 25l-144 166zM1072 1150q0 -120 0.5 -238.5t1 -180t0.5 -123t-0.5 -88t-2.5 -54.5t-4 -42.5t-7 -32.5q-42 -183 -180.5 -286.5t-309.5 -104.5q-171 1 -310 104.5t-181 286.5q-5 18 -7 32.5t-4 42.5
t-2.5 54.5t-0.5 88t0.5 123t1 180t0.5 238.5h288q0 -84 -0.5 -180t-1 -150.5t-0.5 -118t1 -97.5t3.5 -73.5t7 -59.5t11.5 -43t16 -37.5t22 -29.5q62 -70 155.5 -70t155.5 70q13 15 22.5 29.5t16.5 37.5t11 43t6.5 60t3.5 73t1.5 97.5t0 118.5t-1 150.5t-0.5 179.5h287z" />
    <glyph glyph-name="udieresis" unicode="&#xfc;" horiz-adv-x="1140" 
d="M873 1301q-43 -42 -103.5 -42t-102.5 42t-42 103t42 103q43 43 102 43t104 -43q44 -43 44 -103t-44 -103zM1072 1150q0 -120 0.5 -238.5t1 -180t0.5 -123t-0.5 -88t-2.5 -54.5t-4 -42.5t-7 -32.5q-42 -183 -180.5 -286.5t-309.5 -104.5q-171 1 -310 104.5t-181 286.5
q-5 18 -7 32.5t-4 42.5t-2.5 54.5t-0.5 88t0.5 123t1 180t0.5 238.5h288q0 -84 -0.5 -180t-1 -150.5t-0.5 -118t1 -97.5t3.5 -73.5t7 -59.5t11.5 -43t16 -37.5t22 -29.5q62 -70 155.5 -70t155.5 70q13 15 22.5 29.5t16.5 37.5t11 43t6.5 60t3.5 73t1.5 97.5t0 118.5
t-1 150.5t-0.5 179.5h287zM470 1301q-44 -42 -103.5 -42t-101.5 42t-42 103t42 103q43 43 101.5 43t103.5 -43q44 -43 44 -103t-44 -103z" />
    <glyph glyph-name="yacute" unicode="&#xfd;" horiz-adv-x="1009" 
d="M577 1312q-21 -23 -54 -23h-165l198 323q21 34 61 34h262zM634 1150h288v-1150q0 -156 -77 -288.5t-209.5 -209.5t-288.5 -77q-75 0 -144 18v308q66 -39 144 -39q119 0 203 84.5t84 203.5q-156 0 -288.5 77t-209.5 209.5t-77 288.5v575h288v-575q0 -119 84 -203.5
t203 -84.5v863z" />
    <glyph glyph-name="thorn" unicode="&#xfe;" horiz-adv-x="1271" 
d="M661 1152q156 0 288.5 -77t209.5 -209.5t77 -288.5t-77 -288.5t-209.5 -209.5t-288.5 -77q-75 0 -144 18v308q68 -39 144 -39q119 0 203.5 84.5t84.5 203.5t-84.5 203t-203.5 84t-203 -84t-84 -203v-1006h-288v1006v3v790h288v-295q134 77 287 77z" />
    <glyph glyph-name="ydieresis" unicode="&#xff;" horiz-adv-x="1009" 
d="M794 1301q-44 -42 -104 -42t-102 42t-42 103t42 103q44 43 102.5 43t103.5 -43q44 -43 44 -103t-44 -103zM391 1301q-43 -42 -103 -42t-102 42t-42 103t42 103q44 43 102 43t103 -43q44 -43 44 -103t-44 -103zM634 1150h288v-1150q0 -156 -77 -288.5t-209.5 -209.5
t-288.5 -77q-75 0 -144 18v308q64 -38 144 -38q119 0 203 84t84 203q-156 0 -288.5 77t-209.5 209.5t-77 288.5v575h288v-575q0 -119 84 -203.5t203 -84.5v863z" />
    <glyph glyph-name="dotlessi" unicode="&#x131;" horiz-adv-x="462" 
d="M374 0h-288v1150h288v-1150z" />
    <glyph glyph-name="OE" unicode="&#x152;" horiz-adv-x="1933" 
d="M1123 1119q-106 -92 -109 -230h762v-294h-762q3 -133 99 -220t272 -87h496v-296h-1222q-82 0 -165 23q-102 29 -188.5 90t-146.5 147q-62 88 -89 189q-3 12 -6 25t-5 23.5t-3.5 25.5t-2.5 23.5t-2 25.5t-1.5 23.5t-0.5 25.5v24v26v25q0 24 -1 76t-1 82.5t3 74t10 78.5
q42 214 210 354q168 139 389 139h1222v-296h-497q-68 0 -145 -21.5t-116 -55.5zM804 288q-36 60 -54.5 120.5t-24 104t-6.5 45.5v368l2 9q12 144 83 261h-145q-120 0 -207 -76.5t-105 -190.5q-4 -27 -3.5 -190.5t3.5 -182.5q17 -116 105 -192t207 -76h145z" />
    <glyph glyph-name="oe" unicode="&#x153;" horiz-adv-x="2082" 
d="M2042 657q22 -150 -33 -293h-338l-238 1l4 287h312q-2 15 -15.5 43.5t-33.5 53.5q-73 94 -190.5 109t-212.5 -58q-90 -70 -108 -182t46 -206q69 -103 199 -122l-2 -288q-102 8 -182 42v-1q-123 52 -209 151q-80 -91 -192 -142.5t-239 -51.5q-156 0 -288.5 77
t-209.5 209.5t-77 288.5t77 288.5t209.5 209.5t288.5 77q127 0 239.5 -52t192.5 -144q27 32 79 73q123 96 275 116.5t294 -37.5t238 -181q89 -116 113 -261zM610 287q119 0 203 84.5t84 203.5q0 120 -85 203.5t-202 83.5q-119 0 -203.5 -84t-84.5 -203t84.5 -203.5
t203.5 -84.5z" />
    <glyph glyph-name="Scaron" unicode="&#x160;" horiz-adv-x="1269" 
d="M745 1644h-216l-285 383h194q36 0 58 -30l141 -186l141 186q22 30 58 30h194zM1087 825q75 -75 111 -168.5t33.5 -184.5t-38.5 -178.5t-97 -153.5t-150.5 -107.5t-191.5 -42.5h-673v296h661q53 0 94.5 21.5t62.5 55.5t30.5 75.5t-0.5 82.5t-31.5 75t-62.5 55.5t-93 21.5
h-285q-166 0 -281.5 105.5t-133.5 251.5q-16 124 37 232.5t153 171t219 62.5h674v-296q-3 0 -341 -0.5t-341 -0.5q-49 -3 -77.5 -38t-29 -76t27.5 -76t79 -39q12 -1 299 -1q202 0 345 -144z" />
    <glyph glyph-name="scaron" unicode="&#x161;" horiz-adv-x="1007" 
d="M613 1296h-212l-282 332h189q32 0 55 -26l144 -166l144 166q23 26 55 26h189zM609 718q147 -2 250.5 -106t103.5 -251q0 -148 -104.5 -253t-252.5 -105h-3h-525v286h528q29 0 50 21.5t21 50.5t-21 50t-50 21h-201q-147 2 -250.5 106t-103.5 251q0 148 105 253t253 105v0
h482v-286h-482q-29 0 -50.5 -21.5t-21.5 -50.5t21.5 -50t50.5 -21h200z" />
    <glyph glyph-name="Ydieresis" unicode="&#x178;" horiz-adv-x="1271" 
d="M940 1692q-41 -40 -98.5 -40t-97.5 40t-40 97.5t40 97.5q42 42 98 41.5t98 -41.5t42 -98t-42 -97zM949 1083v408h297l-1 -383q0 -113 -38.5 -215.5t-103.5 -177t-147 -126t-172 -73.5v-521h-297l1 520q-179 43 -311 190.5t-151 348.5q-1 12 -1 437h295q0 -303 -1 -383
q0 -139 110 -237q90 -80 211 -77.5t210 85.5q90 84 99 204zM525 1692q-41 -40 -98.5 -40t-97.5 40t-40 97.5t40 97.5q42 42 98 41.5t98 -41.5t42 -98t-42 -97z" />
    <glyph glyph-name="zcaron" unicode="&#x17e;" horiz-adv-x="1089" 
d="M650 1296h-212l-282 332h189q32 0 55 -26l144 -166l144 166q23 26 55 26h189zM491 287h556v-287h-862q-59 0 -101.5 42.5t-42.5 101.5q0 56 38 97l518 621h-556v288h862q59 0 101.5 -42.5t42.5 -101.5q0 -57 -41 -100z" />
    <glyph glyph-name="endash" unicode="&#x2013;" horiz-adv-x="901" 
d="M860 441h-823v237h823v-237z" />
    <glyph glyph-name="emdash" unicode="&#x2014;" horiz-adv-x="1318" 
d="M1279 441h-1242v237h1242v-237z" />
    <glyph glyph-name="quoteleft" unicode="&#x2018;" horiz-adv-x="385" 
d="M190 1702h157v-288q0 -65 -46 -111t-111 -46q-58 0 -101.5 37.5t-52.5 89.5t17 107z" />
    <glyph glyph-name="quoteright" unicode="&#x2019;" horiz-adv-x="370" 
d="M194 1702q58 0 101.5 -37.5t52.5 -89.5t-17 -107l-137 -211h-157v288q0 65 46 111t111 46z" />
    <glyph glyph-name="quotesinglbase" unicode="&#x201a;" horiz-adv-x="395" 
d="M198 323q58 0 101.5 -37.5t52.5 -89t-17 -106.5q-2 -3 -69 -106.5t-68 -105.5h-157v288q0 65 46 111t111 46z" />
    <glyph glyph-name="quotedblleft" unicode="&#x201c;" horiz-adv-x="778" 
d="M53 1491l137 211h157v-288q0 -65 -46 -111t-111 -46q-58 0 -101.5 37.5t-52.5 89.5t17 107zM586 1702h157v-288q0 -65 -46 -111t-111 -46q-58 0 -101.5 37.5t-52.5 89.5t17 107z" />
    <glyph glyph-name="quotedblright" unicode="&#x201d;" horiz-adv-x="765" 
d="M194 1702q58 0 101.5 -37.5t52.5 -89.5t-17 -107l-137 -211h-157v288q0 65 46 111t111 46zM590 1702q58 0 101.5 -37.5t52.5 -89.5t-17 -107l-137 -211h-157v288q0 65 46 111t111 46z" />
    <glyph glyph-name="quotedblbase" unicode="&#x201e;" horiz-adv-x="790" 
d="M198 323q58 0 101.5 -37.5t52.5 -89.5t-17 -107l-137 -211h-157v288q0 65 46 111t111 46zM594 323q58 0 101.5 -37.5t52.5 -89.5t-17 -107l-137 -211h-157v288q0 65 46 111t111 46z" />
    <glyph glyph-name="dagger" unicode="&#x2020;" horiz-adv-x="983" 
d="M972 1070v-237h-362v-833h-238v833h-362v237h362v400h238v-400h362z" />
    <glyph glyph-name="bullet" unicode="&#x2022;" horiz-adv-x="522" 
d="M260 963q90 0 153.5 -62.5t63.5 -152.5q0 -92 -62.5 -154.5t-154.5 -62.5q-91 0 -154 62t-63 153q-1 91 62.5 154t154.5 63z" />
    <glyph glyph-name="ellipsis" unicode="&#x2026;" horiz-adv-x="1501" 
d="M194 10q-65 0 -111 46t-46 111t46 111t111 46t111 -46t46 -111t-46 -111t-111 -46zM750 10q-65 0 -111 46t-46 111t46 111t111 46t111 -46t46 -111t-46 -111t-111 -46zM1306 10q-65 0 -111 46t-46 111t46 111t111 46t111 -46t46 -111t-46 -111t-111 -46z" />
    <glyph glyph-name="guilsinglleft" unicode="&#x2039;" horiz-adv-x="583" 
d="M551 1167l-275 -420l275 -419h-241l-275 419l275 420h241z" />
    <glyph glyph-name="guilsinglright" unicode="&#x203a;" horiz-adv-x="585" 
d="M274 1167l275 -420l-275 -419h-241l275 419l-275 420h241z" />
    <glyph glyph-name="Euro" unicode="&#x20ac;" horiz-adv-x="1335" 
d="M764 1202q-96 0 -173 -51.5t-115 -134.5h517v-209h-545v-118h545v-210h-517q37 -84 114.5 -135t173.5 -51h517v-295h-517q-219 0 -385.5 136.5t-211.5 344.5h-114v210h101v118h-101v209h114q45 210 212 345.5t385 135.5h517v-295h-517z" />
    </font>
</defs>
</svg>
